<?xml version="1.0" standalone="no"?>
<!DOCTYPE svg PUBLIC "-//W3C//DTD SVG 1.1//EN" "http://www.w3.org/Graphics/SVG/1.1/DTD/svg11.dtd" >
<svg xmlns="http://www.w3.org/2000/svg">
<metadata></metadata>
<defs>
<font id="stone_serifregular" horiz-adv-x="654" >
<font-face units-per-em="2048" ascent="1637" descent="-411" />
<missing-glyph horiz-adv-x="475" />
<glyph unicode="&#xd;" horiz-adv-x="475" />
<glyph unicode=" "  horiz-adv-x="475" />
<glyph unicode="&#x09;" horiz-adv-x="475" />
<glyph unicode="&#xa0;" horiz-adv-x="475" />
<glyph unicode="!" horiz-adv-x="406" d="M68 1429q0 39 40 55t93 16q71 0 99.5 -16.5t28.5 -44.5l-85 -1023h-74zM69 120q0 58 38 100.5t106 42.5t105.5 -42.5t37.5 -100.5t-37 -100t-106 -42q-66 0 -105 41.5t-39 100.5z" />
<glyph unicode="&#x22;" horiz-adv-x="639" d="M55 1511h198l-66 -611h-66zM381 1511h198l-64 -611h-66z" />
<glyph unicode="#" horiz-adv-x="1227" d="M65 493l22 119h255l52 318h-251l22 123h252l82 458h126l-83 -458h292l82 460h126l-82 -455h229l-21 -125h-230l-55 -317h228l-22 -123h-228l-87 -490h-129l89 490h-287l-88 -490h-128l87 490h-253zM469 616h290l53 314h-291z" />
<glyph unicode="$" horiz-adv-x="983" d="M33 63v335h58l7 -39q11 -71 33.5 -119t66.5 -90.5t102.5 -65.5t132.5 -23v654l-200 159q-88 71 -126 129q-49 74 -49 160q0 140 106 238q98 91 250 112l31 5v135h100v-134h19q107 0 179 -8.5t98 -38.5q8 -9 7 -28q-2 -19 -1 -29v-241h-61q-6 60 -32 117q-33 74 -87.5 111 t-120.5 45v-534l54 -39q113 -85 173 -142q85 -80 127 -159q49 -90 49 -189q0 -153 -115 -252q-96 -83 -269 -127l-33 -10v-228h-98v220q-49 3 -78 5q-85 6 -143 19q-87 17 -180 52zM277 1237q0 -105 93 -185l77 -68v461q-69 -14 -114 -59t-54 -114q-2 -13 -2 -35zM530 69 q66 24 105 58.5t61 92.5q22 57 22 107q0 68 -31 131t-89 118l-68 66v-573z" />
<glyph unicode="%" horiz-adv-x="1922" d="M60 1070q0 179 102 312q109 140 274 140q162 0 272 -138q104 -131 104 -307q0 -192 -96 -334q-105 -156 -274 -156q-170 0 -280 151q-102 142 -102 332zM231 1089q0 -195 33 -292q50 -151 185 -152q120 0 165 145q30 96 30 280q0 165 -38 262q-52 134 -170 134 q-112 0 -164 -125q-41 -99 -41 -252zM420 0l965 1511h134l-963 -1511h-136zM1126 475q0 179 102 312q109 140 274 140q162 0 272 -138q104 -131 104 -307q0 -192 -96 -334q-105 -156 -274 -156q-170 0 -280 153q-102 142 -102 330zM1297 496q0 -195 33 -295 q50 -151 183 -151q120 0 165 145q32 99 32 280q0 165 -38 263q-52 134 -170 134q-112 0 -164 -126q-41 -99 -41 -250z" />
<glyph unicode="&#x26;" horiz-adv-x="1770" d="M58 416q0 181 126 280q101 80 290 110l-139 140q-55 55 -82.5 113.5t-27.5 125.5q0 25 5 54q19 129 126 202t250 73q121 0 192 -13t148 -65v-199h-68l-17 44q-27 69 -90.5 110t-137.5 41q-63 0 -112 -31q-41 -25 -60 -65t-19 -91q0 -68 32.5 -136t84.5 -116l641 -568 q63 116 62 271q0 65 -11.5 112.5t-43.5 112.5h-266v44l114 60h666v-40l-118 -64h-240v-159q0 -66 -7 -115t-27 -118q-13 -41 -28 -76.5t-37 -77.5l412 -334v-41h-281l-240 211l-122 -107q-74 -65 -178 -98.5t-217 -33.5q-230 0 -397 115q-183 126 -183 329zM315 438 q0 -112 57 -210q47 -80 132 -122.5t184 -42.5q91 0 173 30.5t148 90.5l83 77l-571 496l-42 -22q-79 -44 -121.5 -123.5t-42.5 -173.5z" />
<glyph unicode="'" horiz-adv-x="316" d="M68 1508h198l-66 -611h-66z" />
<glyph unicode="(" horiz-adv-x="617" d="M61 663q0 288 116 502t358 379l22 -33l-41 -38q-165 -154 -228 -352q-52 -162 -52 -428q0 -209 17 -336q24 -170 84 -291q69 -139 203 -256l22 -19l-33 -37q-224 154 -343 381q-124 235 -125 528z" />
<glyph unicode=")" horiz-adv-x="613" d="M52 -209l22 19q132 116 201 255q61 124 85 291q17 124 18 337q0 268 -51 428q-61 197 -228 352l-42 38l22 33q242 -165 358 -377.5t116 -503.5t-122 -522.5t-346 -386.5z" />
<glyph unicode="*" horiz-adv-x="883" d="M57 1168l55 164l277 -126l-35 305h175l-38 -307l280 129l57 -160l-302 -65l204 -226l-138 -101l-150 264l-149 -264l-140 99l203 228z" />
<glyph unicode="+" horiz-adv-x="1215" d="M65 545v141h478v469h137v-469h479v-141h-479v-473h-137v473h-478z" />
<glyph unicode="," horiz-adv-x="428" d="M3 -312l60 85q35 47 48 86.5t24 105.5q2 16 3 28t1 18q0 35 -7.5 89t-7.5 64q0 27 24 49l76 64q24 20 39 19q13 0 23 -9.5t18 -22.5l28 -56q8 -16 17.5 -38t9.5 -52q0 -27 -13 -47q-6 -27 -61 -118q-41 -65 -58 -95q-72 -120 -153 -236z" />
<glyph unicode="-" horiz-adv-x="604" d="M66 546v142h480v-142h-480z" />
<glyph unicode="." horiz-adv-x="382" d="M63 115q0 57 35.5 96t101.5 39t102 -41t36 -99q0 -57 -33 -93q-38 -42 -104 -42t-102 41t-36 99z" />
<glyph unicode="/" horiz-adv-x="813" d="M71 -228l560 1819h136l-564 -1819h-132z" />
<glyph unicode="0" horiz-adv-x="1229" d="M63 771q0 305 142 528q159 249 422 248q261 0 417 -250q140 -225 140 -530q0 -313 -143 -539q-161 -253 -430 -253q-261 0 -414 256q-134 225 -134 540zM296 746q0 -179 22 -310q30 -172 98 -266q82 -113 220 -113q137 0 211 113q60 93 83 269q16 122 16 312 q0 208 -14 319q-24 179 -87 277q-77 118 -218 119q-142 0 -222 -119q-66 -98 -92 -278q-17 -124 -17 -323z" />
<glyph unicode="1" horiz-adv-x="913" d="M54 1327l530 209v-1322q0 -25 1 -46.5t15 -47.5q24 -43 107 -55q31 -5 86 -5l62 -2v-58h-745v57l85 6q74 0 101 6q50 13 71 55q3 8 6 24.5t3 37.5v25v996q0 41 -8 57q-19 43 -75 43q-17 0 -37 -4t-59 -15l-120 -37z" />
<glyph unicode="2" horiz-adv-x="1194" d="M57 0v109l396 423q91 99 156 184q85 113 131 208q54 112 53 205q0 71 -29.5 127.5t-99.5 102.5q-55 36 -129 36q-105 0 -197 -65.5t-113 -164.5l-20 -104h-60v252q76 104 189 162q121 63 263 63q118 0 196.5 -26t151.5 -100q46 -47 67 -102t21 -120q0 -116 -65.5 -237.5 t-169.5 -223.5l-578 -567h602q52 0 96 17.5t74 55.5q24 28 49 85l31 70h76l-139 -390h-952z" />
<glyph unicode="3" horiz-adv-x="1094" d="M57 239l102 74l110 -151q83 -115 228 -115q22 0 35 2q124 0 202 116q69 105 69 252q0 162 -95 254q-88 85 -229 85h-139v88l77 8q135 14 229 107.5t94 224.5v23q-3 16 -3 24q-14 96 -63 157q-55 68 -144 82q-25 3 -36 3q-79 0 -143 -55q-58 -49 -99 -137l-17 -37l-70 36 l-1 165l66 30q145 63 324 63q181 0 294 -66q131 -76 131 -217q0 -143 -85.5 -252t-232.5 -164l-42 -14l53 -13q159 -38 261 -127q115 -101 115 -233q0 -233 -171 -361q-153 -113 -386 -113q-161 0 -302 55l-54 21z" />
<glyph unicode="4" horiz-adv-x="1177" d="M54 499q76 118 108 168q43 65 113 167q132 194 241 343q102 140 252 336h126v-924h228v-147h-226v-228q0 -9 -1 -22t-1 -27q0 -13 1.5 -23.5t8.5 -21.5q14 -25 56.5 -42.5t80.5 -17.5l59 -2v-58h-647v57l63 6q52 3 106 6q54 9 72 54q8 17 8 47q0 11 -1.5 25t-1.5 16 l3 228h-625zM213 587h491v701q-107 -128 -186.5 -235t-169.5 -247q-25 -39 -67.5 -106t-67.5 -113z" />
<glyph unicode="5" horiz-adv-x="1079" d="M47 258l87 84l197 -213q36 -39 85.5 -59t109.5 -20q94 0 173 47.5t107 133.5q19 57 19 114q0 172 -142.5 316.5t-333.5 177.5l-182 30l187 642h592l-58 -162h-471l-86 -286l80 -21q261 -61 420 -200q186 -161 186 -389q0 -43 -2 -62t-11 -60q-35 -173 -192 -270 q-142 -87 -340 -86q-124 0 -247 39l-83 29z" />
<glyph unicode="6" horiz-adv-x="1128" d="M58 524q0 390 246 674q239 275 596 324l71 10v-92l-52 -8q-442 -69 -582 -495q-17 -55 -25 -83.5t-14 -72.5l62 47q72 55 164 79q68 17 145 17q184 0 298 -140q108 -134 108 -340q0 -190 -148.5 -332.5t-334.5 -142.5q-219 0 -370 141q-164 154 -164 414zM280 477 q0 -189 86.5 -312.5t225.5 -123.5q124 0 201 110q73 104 73 255q0 183 -84 295q-91 123 -255 122q-110 0 -178.5 -100.5t-68.5 -245.5z" />
<glyph unicode="7" horiz-adv-x="1027" d="M65 1226v285h900v-94q-63 -126 -124 -241q-72 -137 -114 -217q-68 -135 -118 -247l-319 -712h-200q120 198 206 354q79 142 190 362q83 165 152.5 312.5t147.5 323.5h-501q-43 0 -68 -4t-48.5 -23.5t-34.5 -45.5t-11 -53h-58z" />
<glyph unicode="8" horiz-adv-x="1144" d="M65 397q0 120 59 205.5t170 138.5l90 43l-71 46q-109 69 -159 135q-61 82 -61 189q0 167 146 275q137 101 321 101q200 0 320.5 -83.5t120.5 -239.5q0 -115 -61.5 -200.5t-172.5 -137.5l-59 -28l151 -85q112 -61 169 -139q64 -88 64 -203q0 -189 -154 -318 q-148 -124 -349 -124q-209 0 -361 113q-164 123 -163 312zM255 389q0 -139 93.5 -242t229.5 -103q112 0 193 68t100 178q5 27 4 52q0 101 -67 184q-61 76 -170 129l-181 91l-38 -25q-85 -57 -124.5 -139.5t-39.5 -192.5zM315 1209q0 -94 64 -167q49 -55 155 -115l104 -58 l31 20q83 50 121 118t38 166q0 34 -5 72q-13 99 -86 157.5t-183 58.5q-101 0 -170 -72.5t-69 -179.5z" />
<glyph unicode="9" horiz-adv-x="1127" d="M55 1067q0 189 149 327t349 138q253 0 390 -158q129 -148 129 -401q0 -376 -238.5 -662t-605.5 -336l-69 -10v92l52 9q442 69 582 494q13 43 23 82.5t15 75.5l-61 -47q-72 -55 -154 -79q-61 -17 -136 -17q-195 0 -307 122q-118 129 -118 370zM264 1067q0 -148 79 -263 q90 -131 230 -130q139 0 211 105q64 95 64 246q0 164 -66 286q-82 151 -229 151q-137 0 -216 -118q-72 -109 -73 -277z" />
<glyph unicode=":" horiz-adv-x="387" d="M47 891q0 57 37 98.5t103 41.5q65 0 103 -42q33 -38 33 -93q0 -57 -37 -98.5t-103 -41.5q-65 0 -100.5 40t-35.5 95zM57 110q0 55 35.5 95.5t99.5 40.5q66 0 106 -45q35 -38 34 -96q0 -57 -33 -92q-38 -43 -104 -43q-65 0 -101.5 42t-36.5 98z" />
<glyph unicode=";" horiz-adv-x="458" d="M3 -312l60 85q35 47 48 86.5t24 105.5q2 16 3 28t1 18q0 35 -7.5 89t-7.5 64q0 27 24 49l76 64q24 20 39 19q13 0 23 -9.5t18 -22.5l28 -56q8 -16 17.5 -38t9.5 -52q0 -27 -13 -47q-6 -27 -61 -118q-41 -65 -58 -95q-72 -120 -153 -236zM110 891q0 57 37 98.5t103 41.5 q65 0 103 -42q33 -38 33 -93q0 -57 -37 -98.5t-103 -41.5q-65 0 -100.5 40t-35.5 95z" />
<glyph unicode="&#x3c;" horiz-adv-x="1136" d="M55 537v159l1020 470v-154l-834 -393l834 -377v-165z" />
<glyph unicode="=" horiz-adv-x="1204" d="M65 340v146h1089v-146h-1089zM65 762v145h1089v-145h-1089z" />
<glyph unicode="&#x3e;" horiz-adv-x="1136" d="M54 77v165l834 377l-834 393v154l1020 -470v-159z" />
<glyph unicode="?" horiz-adv-x="928" d="M68 1292q-2 13 6 27l69 120l85 23q94 27 192 27q184 0 307 -82q139 -93 139 -252q0 -98 -44 -174q-36 -65 -123 -139l-151 -135q-27 -22 -46 -45.5t-34.5 -57.5t-21 -53t-5.5 -52v-83h-110v92q0 46 9 84q2 8 17.5 56.5t48 96.5t65.5 97l78 126q54 88 54 203 q0 102 -44 169q-50 74 -142 74q-50 0 -91 -27q-17 -11 -76 -66l-67 -68q-8 -9 -11 -13q-6 -8 -15 -7q-5 0 -20 9l-55 35q-13 6 -14 15zM244 110q0 57 37 98.5t103 41.5q68 0 105.5 -42.5t37.5 -100.5q0 -57 -37 -98.5t-103 -41.5q-68 0 -105.5 42.5t-37.5 100.5z" />
<glyph unicode="@" horiz-adv-x="1597" d="M76 741q0 310 218 530t528 220q282 0 489 -164q219 -173 219 -434q0 -228 -146.5 -408.5t-344.5 -180.5q-85 0 -126 83q-13 27 -25 84l-62 -70q-79 -90 -196 -89q-121 0 -199 96t-78 225q0 189 160 332q145 129 296 129q61 0 102 -22t59 -72l20 -59l41 128l176 5 l-160 -591q-8 -28 -8 -56q0 -30 9.5 -48.5t31.5 -18.5q124 0 232 168t108 349q0 236 -186 378q-170 129 -412 129q-263 0 -449 -186t-186 -449q0 -274 190 -468t460 -194q198 0 340 75q101 54 166 142q22 38 44 77h135q-30 -52 -60 -102q-88 -121 -212 -194 q-179 -104 -416 -104q-315 0 -536.5 223.5t-221.5 536.5zM537 540q0 -69 31 -115q38 -55 109 -55q101 0 192 186q82 166 82 303q0 80 -31 131t-90 51q-101 0 -197 -169.5t-96 -331.5z" />
<glyph unicode="A" horiz-adv-x="1511" d="M38 0v54l19 3q47 6 81 33.5t54.5 63t38.5 87.5l490 1294h126l467 -1365q19 -60 65 -91q17 -13 32 -19t34 -6h17v-54h-502v54h29q46 0 81 31q22 17 22 61v26q-5 13 -6 17l-102 313h-551l-99 -278q-11 -27 -11 -60q0 -49 26 -76q38 -34 82 -34h3v-54h-396zM460 581h496 l-224 711z" />
<glyph unicode="B" horiz-adv-x="1248" d="M36 0v54l79 7q36 5 52.5 11.5t35.5 28.5q14 16 19.5 38.5t5.5 55.5v1156q0 33 -17 56.5t-43 33t-61 9.5l-64 3v58h631q165 0 269 -60q124 -72 143 -222q2 -16 2.5 -27.5t0.5 -19.5q0 -116 -71.5 -206t-191.5 -139l-47 -20l68 -14q156 -31 239 -107q101 -92 101 -246 q0 -219 -157 -340q-142 -110 -358 -110h-636zM434 819h142q47 0 98.5 14t95.5 45q52 38 78.5 104t26.5 144q0 74 -20 137.5t-55 101.5q-43 44 -92.5 60.5t-118.5 16.5h-155v-623zM436 752l2 -466q0 -80 3 -97q9 -47 45 -80q24 -19 56.5 -27t73.5 -8h91q105 0 169.5 97.5 t64.5 228.5q0 77 -26 149t-78 122q-41 39 -108.5 60t-105.5 21h-187z" />
<glyph unicode="C" horiz-adv-x="1495" d="M71 719q0 345 238.5 580.5t590.5 235.5q132 0 235 -17q162 -27 261 -95v-323h-55l-14 77q-25 135 -141 209.5t-286 74.5q-305 0 -455 -236q-122 -192 -122 -501v-5q0 -293 143 -472q161 -201 469 -201q102 0 181 29t153 90q41 35 65.5 69t46.5 89l25 60h56l-75 -315 q-105 -46 -241.5 -69.5t-245.5 -23.5q-394 0 -617 212q-213 201 -212 532z" />
<glyph unicode="D" horiz-adv-x="1580" d="M28 0v54l79 7q55 0 88 38q17 20 21 40t4 56v1156q0 33 -17 56.5t-43 33t-61 9.5l-64 3v58h631q247 0 408 -45q209 -60 319 -197q128 -159 128 -428q0 -425 -259 -646q-228 -195 -598 -195h-636zM427 291q0 -83 11 -120t41 -62q46 -36 129 -37h126q52 0 92.5 9t97.5 28 q172 58 268 248q88 175 88 402q0 209 -77 378q-82 179 -227 242q-94 43 -177.5 54t-217.5 11h-154v-1153z" />
<glyph unicode="E" horiz-adv-x="1226" d="M41 0v54l72 11q35 5 54 11t35.5 25.5t20.5 41t4 55.5v1151q0 33 -16.5 57.5t-44 34t-61.5 9.5l-64 3v58h982v-348h-53l-18 84q-16 58 -23 80q-16 39 -46.5 66t-63.5 38t-78 11h-305v-617h195h40q71 5 103 34q25 22 37 50t17 69l3 36h55v-457h-56l-4 41q-3 38 -14 62.5 t-34.5 48t-61.5 35.5t-93 12h-187v-466q0 -80 3 -98q9 -49 49.5 -82.5t127.5 -33.5h198q50 0 81.5 7.5t75.5 36t81 89.5q22 38 39 87l35 93l53 -2l-66 -387h-1072z" />
<glyph unicode="F" horiz-adv-x="1079" d="M36 0v54l73 9q55 6 66 11t24.5 21.5t18 34.5t4.5 38v1183q0 35 -16.5 56.5t-43.5 32t-61 10.5l-65 3v58h982v-348h-50l-22 85q-11 44 -16 60q-16 47 -53 85q-25 25 -61.5 38t-78.5 13h-304v-666h219q39 0 61 3q55 8 82.5 32t38.5 51t14 68l5 35h55v-457h-56l-5 43 q-3 39 -12.5 61t-36.5 49q-20 20 -58.5 32.5t-95.5 12.5h-211v-541q0 -28 5.5 -45t24.5 -32.5t49.5 -20t60.5 -8.5l41 -7v-54h-578z" />
<glyph unicode="G" horiz-adv-x="1630" d="M58 729q0 335 244 573t583 238q126 0 225 -16t182 -44l49 -16q24 -9 27 -11q13 -8 22 -20.5t13 -26t4 -32.5v-266h-55l-14 76q-25 137 -137 210t-274 73q-318 0 -478 -206q-139 -178 -139 -472q0 -337 131 -523q151 -214 466 -214q109 0 167.5 20.5t88.5 69.5 q17 27 25 82.5t8 118.5v165v32q0 25 -3.5 43t-16.5 37q-17 24 -61 32q-58 6 -89 9l-59 5v55h620v-52l-71 -9q-25 -3 -50 -7q-24 -6 -41 -26q-11 -14 -15 -27t-4 -36v-26v-459l-159 -52q-80 -27 -168.5 -39.5t-174.5 -12.5q-157 0 -291 32t-210 84q-183 123 -264 274t-81 364 z" />
<glyph unicode="H" horiz-adv-x="1659" d="M50 0v54l73 9q55 6 66 11t24.5 21.5t18 34.5t4.5 38v1183q0 35 -16.5 56.5t-43 32t-61.5 10.5l-65 3v58h584v-58l-83 -5q-28 0 -50 -8.5t-38 -30.5q-9 -13 -12.5 -28.5t-3.5 -34.5v-475h767v475q0 30 -3 41q-2 6 -14.5 24t-36 27.5t-50.5 9.5l-84 5v58h584v-58l-64 -3 q-72 0 -102 -41q-19 -24 -19 -58v-1183q0 -27 3.5 -40t19.5 -32.5t40.5 -24.5t49.5 -8l72 -9v-54h-582v54l46 7q30 3 60.5 7t49.5 22q30 25 30 77v615h-767v-615q0 -28 5.5 -45t25 -33.5t47.5 -23.5t62 -7l46 -4v-54h-583z" />
<glyph unicode="I" horiz-adv-x="698" d="M63 0v54l74 9q41 5 58.5 9.5t35.5 28t18 67.5v1183q0 17 -3.5 30.5t-14.5 27.5q-16 20 -42.5 30.5t-60.5 10.5l-65 3v58h579v-58l-78 -5q-31 0 -52 -8.5t-37 -30.5q-9 -13 -12 -29.5t-3 -33.5v-1179q0 -28 5.5 -45t24 -32.5t49.5 -20t61 -8.5l42 -7v-54h-579z" />
<glyph unicode="J" horiz-adv-x="692" d="M-219 -249l68 81l153 -79q20 -9 41.5 -19.5t39.5 -10.5q11 0 18 2q72 14 107 163q28 120 28 284v1179q0 17 -3 30.5t-14 27.5q-16 22 -42 31.5t-61 9.5l-64 3v58h578v-58l-77 -5q-31 0 -52.5 -8.5t-37.5 -30.5q-8 -11 -11 -28.5t-3 -34.5v-1105q0 -120 -33 -229.5 t-85 -187.5q-35 -50 -67 -79q-38 -35 -94 -60l-110 -45q-25 -13 -60.5 -19.5t-60.5 -6.5q-17 0 -24 2q-11 2 -23.5 9.5t-31.5 29.5z" />
<glyph unicode="K" horiz-adv-x="1429" d="M30 1453v58h579v-58l-77 -5q-60 0 -90 -39q-9 -13 -12 -29.5t-3 -33.5v-532q14 0 25 5q3 2 18 11t26.5 25.5t18.5 26.5l477 629h272v-58h-27q-28 0 -51.5 -7t-53.5 -21q-54 -27 -95 -71q-3 -3 -48 -60l-366 -446q76 -96 174 -209q88 -102 111 -129q41 -46 129 -153 q74 -90 120 -137q68 -71 151 -132l66 -49q16 -13 16 -21q0 -18 -27 -18h-187q-28 0 -53.5 5.5t-43.5 18t-38 37.5l-564 701h-50v-595q0 -25 7 -44t26 -35t55 -19.5t52 -7.5l44 -7v-54h-575v54l68 9q41 5 58 9.5t35.5 28t18.5 67.5v1183q0 17 -3.5 30.5t-14.5 27.5 q-16 22 -41.5 31.5t-62.5 9.5z" />
<glyph unicode="L" horiz-adv-x="1219" d="M38 0v54l72 9q33 5 54.5 11t36.5 22t19 53t4 78v1124q0 17 -3.5 30.5t-14.5 27.5q-16 20 -42.5 30.5t-61.5 10.5l-64 3v58h579v-58l-79 -5q-30 0 -52 -8.5t-33.5 -26t-15 -34t-3.5 -33.5v-1110q0 -50 5.5 -74.5t29.5 -48.5q43 -41 137 -41h150q65 0 107 9t87 39t83 93 q25 43 42 85l33 92l54 -1l-65 -389h-1059z" />
<glyph unicode="M" horiz-adv-x="2029" d="M11 1456v55h398l584 -1213l630 1213h364v-58h-41q-38 0 -72.5 -18t-53.5 -43q-28 -38 -37 -82t-9 -104v-32v-1006q0 -27 4 -40t19.5 -32.5t40 -24.5t49.5 -8l73 -9v-54h-578v54h41q68 0 110 36q28 25 29 77v996l-613 -1169h-31l-570 1182l1 -934q0 -20 1 -46t18 -57 q47 -85 158 -85h22v-54h-491v54h31q85 0 136 66q22 27 27.5 53.5t5.5 72.5v1039q-35 76 -103 119q-39 27 -71.5 39.5t-71.5 12.5z" />
<glyph unicode="N" horiz-adv-x="1722" d="M17 1453v58h391l985 -1173v931q0 30 -2.5 52t-22.5 53q-27 39 -68.5 59t-92.5 20h-53v58h527v-58h-31q-83 0 -132 -60q-22 -28 -28 -55t-6 -72v-1266h-70l-1054 1256v-1014q0 -36 4 -56.5t20 -46.5q25 -44 73 -64.5t97 -20.5h44v-54h-527v54h31q85 0 136 66 q22 27 27.5 53.5t5.5 73.5v1060q-38 65 -105.5 105.5t-148.5 40.5z" />
<glyph unicode="O" horiz-adv-x="1662" d="M66 727q0 334 243 576q231 231 530 232q331 0 546 -203q225 -213 225 -561q0 -321 -234.5 -563.5t-552.5 -242.5q-298 0 -519 205q-238 220 -238 557zM315 756q0 -274 148 -487q155 -223 374 -223h2q268 0 401 203q125 189 125 532q0 260 -134 456q-154 228 -412 229 q-246 0 -380 -205q-124 -190 -124 -505z" />
<glyph unicode="P" horiz-adv-x="1196" d="M25 0v54l73 9q19 2 43 6.5t48 28.5q13 11 17.5 34.5t4.5 46.5v1172q0 31 -17 58q-17 22 -43.5 31.5t-60.5 9.5l-65 3v58h557q162 0 262 -27q159 -42 228 -157q55 -91 55 -206q0 -107 -44 -201t-121 -152t-166 -85t-201 -27l-79 -1v42l70 7q68 6 108.5 19.5t91.5 49.5 q61 44 92.5 128t31.5 184q0 77 -20.5 148.5t-56.5 113.5q-44 52 -98.5 73.5t-131.5 21.5h-180v-1264q0 -36 2.5 -52.5t17.5 -32.5t50.5 -21.5t68.5 -10.5l41 -7v-54h-578z" />
<glyph unicode="Q" horiz-adv-x="1645" d="M57 756q0 324 252 560q233 219 495 219q367 0 579.5 -211t212.5 -568q0 -246 -148 -451.5t-389 -282.5l293 -138q96 -46 131 -59q58 -22 138 -41q43 -9 90 -17.5t113 -8.5l21 -38l-178 -65q-27 -11 -46.5 -15t-44.5 -4q-36 0 -75.5 13.5t-88.5 40.5l-530 293 q-50 -8 -63 -8h-46q-310 0 -516 233q-200 225 -200 548zM307 811q0 -313 140 -525q157 -236 427 -236q238 0 366 218q114 192 114 488t-143 495q-154 214 -407 215q-233 0 -371 -205q-126 -186 -126 -450z" />
<glyph unicode="R" horiz-adv-x="1360" d="M35 0v54l72 9q55 6 66 11t24.5 21.5t18 34.5t4.5 38v1183q0 33 -17 56.5t-43 33t-61 9.5l-64 3v58h557q148 0 223 -16q118 -25 188 -102q96 -112 96 -261q0 -94 -40.5 -183.5t-115.5 -156.5q-28 -25 -57.5 -43.5t-62.5 -32.5l-26 -12l319 -471q33 -49 56 -76.5t61 -63.5 q22 -20 41.5 -35t43.5 -31v-27h-192q-28 0 -56 6.5t-47 18t-33 36.5l-354 610h-203v-504q0 -27 5.5 -44.5t22.5 -32.5q41 -35 110 -35l41 -1v-54h-577zM431 735h114q82 0 126.5 8t95.5 44q60 43 89.5 125.5t29.5 179.5q0 83 -21 157.5t-59 118.5t-82 59t-112 15h-179z" />
<glyph unicode="S" horiz-adv-x="1018" d="M46 38v332h56l7 -38q19 -135 121 -217q98 -77 228 -77q126 0 199 82.5t73 202.5q0 96 -53 174q-44 65 -139 133l-253 187q-104 77 -151 142q-66 90 -66 198v27.5t6 40.5q25 146 175 231q134 76 315 76q72 0 143.5 -10.5t144.5 -41.5l1 -298h-58l-11 65q-16 96 -90 153.5 t-173 57.5q-83 0 -146 -49t-85 -129q-5 -14 -6.5 -36t-1.5 -26q0 -110 86 -177l395 -306q94 -72 144 -155t50 -190q0 -184 -141 -303.5t-339 -119.5q-96 0 -203 13q-162 19 -228 58z" />
<glyph unicode="T" horiz-adv-x="1405" d="M49 1181l52 330h1195l56 -321h-52l-39 72q-22 38 -43 78q-24 36 -60 61t-72 32t-90 7h-196l-2 -1273q0 -49 39 -77q47 -35 109 -35l43 -1v-54h-580v54l74 7q41 3 59 12t33 25q22 22 22 70v1272h-196q-57 0 -92 -8.5t-73.5 -36t-62.5 -66.5q-27 -54 -42 -85l-32 -63h-50z " />
<glyph unicode="U" horiz-adv-x="1632" d="M38 1453v58h579v-58l-79 -5q-31 0 -51.5 -8.5t-36.5 -30.5q-9 -13 -12.5 -29.5t-3.5 -33.5v-836q0 -186 95 -301q106 -130 305 -130h3q205 0 331 143q120 135 120 335v724q0 46 -9 75t-35.5 54.5t-55.5 34t-70 8.5h-30v58h511v-58h-25q-49 0 -78.5 -9.5t-56.5 -39.5 q-20 -24 -30 -62.5t-10 -63.5l-1 -721q0 -246 -161.5 -415t-417.5 -169q-271 0 -433 143.5t-162 390.5v844q0 17 -3.5 30.5t-14.5 27.5q-16 20 -42.5 30.5t-61.5 10.5z" />
<glyph unicode="V" horiz-adv-x="1575" d="M38 1453v58h585v-58l-42 2q-50 0 -82 -27q-39 -35 -39 -85q0 -25 9 -49l346 -1039l419 1033q9 24 10 47q0 52 -41 88q-19 16 -41 23t-52 7h-36v58h466v-58l-30 2q-19 0 -35.5 -6.5t-34.5 -17.5q-36 -24 -63 -68q-19 -31 -42 -93l-521 -1273h-113l-474 1317 q-13 36 -36.5 66t-51.5 49q-20 13 -41.5 20t-43.5 6z" />
<glyph unicode="W" horiz-adv-x="2287" d="M46 1453v58h558v-58l-44 2q-52 0 -81 -29q-36 -36 -37 -86v-22q0 -5 7 -24l266 -956l428 1162h69l435 -1166l285 958q9 31 9 59q0 35 -20.5 60.5t-49.5 33.5t-72 8h-37v58h475v-58h-30q-31 0 -70.5 -23t-63.5 -67q-16 -28 -36 -96l-383 -1267h-92l-438 1168l-422 -1168 h-82l-385 1313q-22 80 -78 115q-41 27 -96 27z" />
<glyph unicode="X" horiz-adv-x="1589" d="M39 0v54h30q24 0 44.5 11.5t40.5 24.5q43 25 85 80q33 44 49 66l406 551l-373 549q-27 43 -44 62q-24 28 -51.5 41.5t-58.5 13.5h-22v58h505v-58h-28q-52 0 -73 -39q-5 -8 -6 -20t-1 -18q0 -14 4.5 -31.5t9.5 -25.5l258 -374l286 398q16 20 16 49q0 17 -8.5 34.5 t-24.5 22t-49 4.5h-20v58h412v-58h-31q-14 0 -27 -1t-30 -5q-49 -17 -85 -63q-41 -60 -64 -93l-320 -430l486 -700q14 -19 37 -41q35 -33 57.5 -42.5t39.5 -16.5t36 -7h24v-54h-551v54h24q30 0 55 11.5t31.5 29.5t6.5 36q0 41 -30 82l-331 492l-359 -477 q-17 -24 -27.5 -46.5t-10.5 -46.5q0 -6 5.5 -28t35 -37.5t65.5 -15.5v-54h-424z" />
<glyph unicode="Y" horiz-adv-x="1418" d="M44 1453v58h549v-58h-44q-30 0 -51 -7t-32 -27t-11 -48q0 -33 17 -68l284 -591l308 568q25 43 25 79q0 25 -12 45q-28 49 -93 49h-52v58h442v-58h-20q-20 0 -37 -5.5t-36 -18.5q-46 -36 -74 -89l-352 -646q-8 -13 -14 -25q-13 -22 -18.5 -45t-7 -38t-1.5 -40v-370 q0 -30 4 -46.5t18 -31.5t34.5 -22.5t48.5 -10.5l76 -11v-54h-575v54h43q43 0 68.5 7.5t47.5 32.5q16 17 22.5 40t6.5 52v425l-367 716q-9 20 -30 44q-25 31 -44 45.5t-46 25.5t-52 11h-25z" />
<glyph unicode="Z" horiz-adv-x="1293" d="M44 68l897 1349h-462q-71 0 -106 -7t-72 -40.5t-51.5 -74t-14.5 -97.5v-28h-59v341h1017v-56l-911 -1368h604q71 0 113.5 9t86 43t64.5 83.5t21 114.5v38h57v-375h-1138z" />
<glyph unicode="[" horiz-adv-x="519" d="M65 -146v1708h401v-51h-153q-31 0 -50 -4t-32.5 -19.5t-15.5 -30.5t-2 -47v-1413q0 -20 3.5 -34.5t15.5 -30t27.5 -21t41.5 -5.5h28h137v-52h-401z" />
<glyph unicode="\" horiz-adv-x="716" d="M66 1510h137l469 -1510h-132z" />
<glyph unicode="]" horiz-adv-x="527" d="M57 -94h137h28q30 0 42.5 3.5t25 20t16 31.5t3.5 36v1413v22q0 20 -2 27q-3 13 -15.5 28.5t-31.5 19.5t-51 4h-152v51h401v-1708h-401v52z" />
<glyph unicode="^" horiz-adv-x="809" d="M46 1193l278 369h147l280 -369h-76l-277 228l-278 -228h-74z" />
<glyph unicode="_" horiz-adv-x="1419" d="M0 -129h1429v-135h-1429v135z" />
<glyph unicode="`" horiz-adv-x="601" d="M55 1461q0 9 17 27l71 61q17 14 27 14q11 0 22 -11l370 -376h-93l-401 266q-13 8 -13 19z" />
<glyph unicode="a" horiz-adv-x="1056" d="M55 274q0 102 69 184q65 76 172 117l368 144v76q0 96 -42 165q-49 79 -131 79q-58 0 -103 -27.5t-79 -79.5l-48 -71q-6 -16 -9 -22q-5 -8 -13 -9q-6 -2 -12 0q-9 3 -13 3l-57 14q-19 3 -23 11q-6 9 3 33l31 107q6 25 15 32q66 44 146 62t165 18q44 0 74 -3.5t63 -9.5 q101 -16 164.5 -95.5t63.5 -186.5v-582q0 -55 9.5 -77t31.5 -32q8 -3 16 -4q8 -2 16 -2q19 0 46 10l28 9l16 -55l-304 -101q-16 24 -24.5 42t-16.5 43t-12 44t-4 41l-212 -143q-49 -33 -114 -33q-80 0 -154 50.5t-102 125.5q-11 28 -17.5 63t-6.5 60zM252 290q0 -88 55 -136 q48 -42 121 -42h3h30q19 5 29 6q87 20 133 112q43 80 43 190v222l-176 -69q-109 -41 -169 -105q-69 -74 -69 -178z" />
<glyph unicode="b" horiz-adv-x="1267" d="M33 1467v54q82 0 179.5 15.5t188.5 48.5v-648l35 30q82 72 169.5 105t191.5 33q189 0 303 -129.5t114 -356.5q0 -290 -169 -471q-162 -173 -404 -173q-57 0 -183 19t-170 19q-20 0 -35 -2.5t-50 -7.5v1368q0 27 -2.5 38t-14 29t-33.5 23.5t-59 5.5h-61zM398 241 q0 -49 7 -76.5t34 -59.5q19 -20 70 -39.5t80 -19.5h47q195 0 291 187q77 149 77 384q0 179 -89 281t-251 102q-134 0 -204 -115q-61 -99 -62 -247v-397z" />
<glyph unicode="c" horiz-adv-x="1045" d="M58 553q0 214 145 369q165 179 446 180q76 0 137 -12t125 -45l82 -162l-104 -60l-116 133q-36 39 -74 54.5t-85 15.5q-172 0 -265 -130q-82 -116 -81 -307q0 -222 126 -364q121 -137 300 -137q33 0 65.5 6.5t68.5 23.5l105 50l35 -61l-274 -131q-28 -5 -40.5 -6t-39.5 -1 q-260 0 -416 182q-140 165 -140 402z" />
<glyph unicode="d" horiz-adv-x="1249" d="M58 501q0 286 167 450q157 154 403 154q85 0 129 -6.5t109 -31.5v303q0 13 -1 30t-14.5 36t-34.5 25t-57 6h-65v54q54 0 93 3t89 11.5t89 18t99 30.5v-1365q0 -35 9.5 -59.5t29 -32t38.5 -7.5t48 8l25 6l11 -57l-306 -101q-28 36 -41 82q-5 16 -6 36.5t-1 42.5l-43 -32 l-145 -85q-72 -44 -164 -44q-175 0 -318 157.5t-143 367.5zM269 553q0 -198 100 -329t239 -131q20 0 31 1q128 16 184 96q43 60 43 153v568q-88 126 -244 126q-187 0 -279 -155q-74 -126 -74 -329z" />
<glyph unicode="e" horiz-adv-x="1026" d="M60 542q0 230 121 384q133 171 364 171h3q187 0 302 -123q110 -116 110 -288v-94h-696v-68q0 -172 115 -297q121 -134 299 -134h27q46 0 59.5 3t65.5 27l94 44l35 -60l-281 -137q-285 0 -451.5 156t-166.5 416zM268 669h381q44 0 71.5 9.5t46.5 39.5q9 14 14 34.5t5 39.5 q0 87 -68 159q-72 79 -170 79q-121 0 -200 -93t-79 -229z" />
<glyph unicode="f" horiz-adv-x="749" d="M65 0v54l39 4q31 3 63 7q31 6 47 22q11 9 16.5 21.5t5.5 42.5v27v751h-148v96h150v186q0 60 30 124q24 50 77 101q38 35 71 55l114 67q25 14 55.5 23t50.5 9q35 0 61 -21l84 -69q15 -13 17 -22q0 -8 -9 -23l-32 -48q-6 -9 -19 -12q-6 -2 -12 0q-13 8 -21 9l-127 54 q-14 6 -22 8q-20 6 -40 6q-28 0 -50 -16t-29 -40t-7 -59v-332h296l4 -47l-89 -49h-211v-748q0 -33 4 -53.5t23 -37.5q33 -28 91 -29l97 -7v-54h-580z" />
<glyph unicode="g" horiz-adv-x="1106" d="M-17 -114q3 20 14.5 30t22.5 16l218 123q-25 0 -42.5 5t-38.5 19q-30 19 -46.5 44t-16.5 60v33l207 173l-32 17q-105 55 -160 134.5t-55 191.5q0 154 117 259t279 105q41 0 99.5 -2t125.5 -31l197 7q57 0 124 16l51 14l16 -30l-54 -94h-225q47 -57 69 -113.5t22 -127.5 q0 -153 -110 -258q-104 -101 -264 -117q-9 -2 -26 -1q-17 0 -40.5 1.5t-29.5 1.5l-37 2l-34 -35q-23 -21 -23 -51q0 -6 1 -12q5 -25 31 -39q19 -9 57 -16l329 -61q101 -19 160 -60q71 -49 90 -134q13 -58 13 -104q0 -187 -164 -299q-146 -99 -346 -99q-198 0 -342 96 q-160 106 -160 287q0 29 3 49zM156 -213q0 -110 96.5 -186t226.5 -76q137 0 234 59q112 69 112 191q0 22 -2 35q-9 76 -74 122q-57 41 -146 57l-268 47l-30 -17q-66 -41 -97 -79q-38 -46 -49 -113q-3 -13 -3 -40zM266 748q0 -16 1 -28.5t2 -22.5q13 -112 66 -190 q61 -90 151 -90q13 2 19 2q98 9 139 100q31 70 31 188q0 131 -47 223q-57 110 -162 111q-96 0 -151 -93q-49 -82 -49 -200z" />
<glyph unicode="h" horiz-adv-x="1371" d="M49 0v54l39 4q31 3 63 7q31 6 46.5 21t19 30t3.5 41v21v1193q0 13 -0.5 30t-13 35.5t-36.5 24t-57 5.5h-64v53q46 0 86 4t89.5 12.5t82.5 15.5t112 34v-666l47 41q173 146 368 147q61 0 128 -18q107 -28 154 -118q38 -72 38 -193l1 -591q0 -39 2.5 -57t21.5 -36 q14 -13 44 -19t47 -9l55 -12v-54h-538v54l39 9q30 5 61.5 12t47.5 22.5t21.5 36t5.5 53.5l-2 484q0 137 -25 195q-39 93 -161 116q-30 6 -64 7q-134 0 -217 -112q-76 -102 -76 -243l2 -453v-27q0 -22 4 -37t19 -28t32 -18t58 -10l54 -7v-54h-537z" />
<glyph unicode="i" d="M49 0v55l39 3q41 0 67 5.5t43 23.5q11 9 16.5 21.5t5.5 42.5v27v688v25q0 24 -11 40.5t-32 22t-53 5.5h-64v53q44 0 78.5 4t91 16.5t93.5 25t96 41.5v-918v-27q0 -22 4 -37t19 -28t37.5 -18.5t52.5 -9.5l54 -6v-55h-537zM178 1381q0 49 29 81t86 32q61 0 95.5 -39.5 t34.5 -92.5q0 -49 -28.5 -81.5t-85.5 -32.5q-61 0 -96 39.5t-35 93.5z" />
<glyph unicode="j" horiz-adv-x="519" d="M41 959v53q33 0 60.5 4t111.5 25q60 14 98 27t94 39v-1208q0 -146 -35 -233q-39 -96 -134 -157q-38 -24 -84.5 -35.5t-86.5 -11.5v47q41 5 74 34t52.5 83t19.5 122v1102v22q0 20 -2.5 31.5t-13.5 28t-31.5 22t-53.5 5.5h-69zM162 1388q0 47 30 80.5t85 33.5 q63 0 97.5 -38.5t34.5 -93.5q0 -47 -30 -80.5t-85 -33.5q-63 0 -97.5 38.5t-34.5 93.5z" />
<glyph unicode="k" horiz-adv-x="1231" d="M36 0v54l38 4q31 3 63 7q31 6 47 21t20 30t4 41v21v1193q0 38 -14.5 61t-35.5 28.5t-59 5.5h-63v53q46 0 83.5 4t99.5 13q85 16 184 49v-947q25 0 47 3.5t42.5 15.5t45.5 36l252 225q24 22 24 50q0 13 -3 19q-8 20 -29.5 27.5t-51.5 7.5h-28l-1 55h380v-52l-18 -2 q-19 0 -31 -4t-31 -14t-45.5 -33.5t-51.5 -47.5l-311 -282l255 -286q16 -17 79 -92q77 -90 132 -143l109 -97v-24h-244h-27q-8 3 -26 25l-468 561v-405q0 -38 3 -56t20.5 -33.5t35 -20.5t56.5 -10l55 -7v-54h-537z" />
<glyph unicode="l" horiz-adv-x="650" d="M28 0v54l40 4q31 3 63 7q31 6 46 21t19 30.5t4 42.5v20v1192q0 13 -1 30t-14 36t-34.5 24.5t-57.5 5.5h-65v54q54 0 85.5 2t85.5 11.5t87.5 16.5t111.5 34v-1404v-25q0 -22 4 -38t19 -29t32.5 -18t58.5 -10l53 -7v-54h-537z" />
<glyph unicode="m" horiz-adv-x="2018" d="M46 0v54l39 4q31 3 63 7q31 6 47 22q11 9 16.5 21.5t5.5 42.5v27v681q0 24 -1.5 37.5t-13.5 31t-36 24.5t-56 7h-60v53q90 0 177 21q54 13 94.5 28.5t89.5 41.5v-192l34 37q63 69 165.5 114t203.5 45q72 0 133.5 -27t100.5 -82q17 -22 23 -34t23 -53l32 34 q77 77 171.5 117t191.5 40q66 0 125 -16q109 -28 157 -127q41 -82 41 -221v-555q0 -43 3 -61t23 -32t42.5 -23t49.5 -9l47 -4v-54h-533v54l39 6q41 6 63.5 12.5t38.5 19t20.5 26.5t4.5 60v488q0 148 -22 206q-39 102 -159 113q-16 2 -27.5 3t-19.5 1q-123 0 -190 -81 q-82 -98 -82 -305v-420q0 -39 4 -60t22 -36t37.5 -19.5t57.5 -7.5l57 -6v-54h-547v54l46 4q74 0 107 33q11 11 16 28.5t5 33.5v25v491q0 145 -22 202q-38 98 -159 113q-13 0 -27 1.5t-22 1.5q-134 0 -208 -113q-63 -98 -63 -240v-448q0 -43 3 -62t19.5 -33.5t38.5 -20 t54 -9.5l61 -7v-54h-544z" />
<glyph unicode="n" horiz-adv-x="1360" d="M35 0v54l39 3q36 0 64.5 7t44 22t19.5 30.5t4 42.5v20v687q0 27 -2.5 38t-13.5 29t-32 22t-60 4h-63v53q85 0 179 22q55 13 93.5 28t92.5 43v-184l49 42q82 72 174 108t191 36q30 0 66 -5t68 -13q107 -28 155 -127q41 -83 41 -221v-558v-29q0 -25 4 -40t19 -29t46 -19 t48 -6l50 -6v-54h-533v54l39 3q72 0 107 34q9 8 15 22.5t6 40.5v25v490q0 142 -24 198q-39 93 -162 115q-33 5 -63 5q-137 0 -219 -110q-74 -99 -74 -241l2 -455v-27q0 -22 3.5 -36t18.5 -28q31 -30 91 -30l53 -6v-54h-536z" />
<glyph unicode="o" horiz-adv-x="1249" d="M66 519q0 241 159 411q165 176 413 177q230 0 392 -157.5t162 -393.5t-164.5 -407t-405.5 -171q-227 0 -389 151q-167 156 -167 390zM282 519q0 -178 90 -316q99 -153 250 -153q168 0 263 151q85 138 85 355q0 184 -92 327q-99 154 -240 154q-194 0 -285 -174 q-71 -135 -71 -344z" />
<glyph unicode="p" horiz-adv-x="1260" d="M36 959v53q66 0 115 8q46 11 71 16q91 22 183 67l1 -181l27 30q66 72 124 106q68 38 158 49q16 3 33 3h26q184 0 298 -134q120 -140 120 -379q0 -286 -152 -453.5t-393 -167.5q-85 0 -127.5 9t-113.5 42v-386q0 -33 4 -51t23 -35q33 -33 105 -34l85 -3v-55h-582v55l53 5 q54 6 66 11t26.5 18.5t20.5 30t6 63.5v1217q0 20 -2 30q-2 11 -11 26q-14 24 -41 32t-68 8h-19h-36zM408 151q58 -54 112.5 -78t131.5 -24q186 0 269 187q63 142 63 380q0 189 -84.5 288t-217.5 99q-11 0 -24.5 -1.5t-21.5 -1.5q-124 -16 -184 -136q-44 -88 -44 -193v-520z " />
<glyph unicode="q" horiz-adv-x="1227" d="M63 501q0 285 168 448q157 153 403 153q55 0 134 -8q189 -19 219 -19q22 0 44 6.5t44 14.5v-1452q0 -35 4 -55t20.5 -36t38.5 -21.5t55 -10.5l54 -4v-55h-598v55l100 3q72 0 106 33q16 16 21.5 36.5t5.5 50.5v476l-200 -105q-71 -38 -156 -38q-176 0 -319.5 158.5 t-143.5 369.5zM274 575q0 -213 98.5 -349t250.5 -136q118 0 186 64.5t68 182.5v574q-55 61 -110 90t-133 29q-190 0 -283 -141q-77 -116 -77 -314z" />
<glyph unicode="r" horiz-adv-x="820" d="M41 0v54l38 4q31 3 63 7q31 6 47 21t20 30.5t4 42.5v20v685q0 27 -2.5 38t-14.5 30t-42.5 23t-49.5 4h-63v55q91 0 179 20q55 13 94 28t92 43v-198l148 149q22 22 47.5 35.5t48.5 13.5q8 0 23.5 -4t23.5 -12t19 -26l84 -145l-96 -66l-107 52q-24 11 -49 11q-30 0 -71 -20 t-54.5 -62.5t-13.5 -113.5v-538q0 -38 2.5 -56t20 -34.5t39.5 -23t53 -6.5l104 -7v-54h-587z" />
<glyph unicode="s" horiz-adv-x="794" d="M55 825q2 14 2 20q11 124 107 194.5t241 70.5q77 0 150 -11t106 -24v-214h-57l-9 38q-14 66 -64.5 104t-121.5 38q-68 0 -119 -38t-51 -101q0 -43 13.5 -72.5t45.5 -53.5l292 -217q72 -54 107 -117.5t35 -151.5q0 -139 -111 -225.5t-268 -86.5q-85 0 -167 15.5t-129 44.5 v241h52l4 -38q13 -87 80.5 -138t157.5 -51q82 0 138 51t56 125q2 20 1 27q0 54 -26 96.5t-75 76.5l-284 205q-105 76 -106 192z" />
<glyph unicode="t" horiz-adv-x="805" d="M66 929v96h170v228l132 120h60v-347h326v-58l-87 -38h-239v-609q0 -74 13.5 -119t59 -74.5t96.5 -29.5q27 0 56 7t41 8l47 13l16 -55l-250 -98q-6 -1 -16 -1h-12q-36 0 -62.5 7t-60.5 26q-74 43 -101 126q-19 60 -19 173v625h-170z" />
<glyph unicode="u" horiz-adv-x="1303" d="M44 959v53q87 0 186 22q54 14 89 28.5t95 44.5v-690q0 -140 24 -198q39 -96 162 -115q28 -5 53 -5q134 0 206 112q63 98 63 241v412q0 24 -1.5 37.5t-14 32t-37 22t-54.5 3.5h-63v53q63 0 111 8q6 2 64 15t97 28t92 45v-880q0 -41 11 -70t41 -38q13 -5 24 -5q14 0 27.5 4 t20.5 7l24 8l13 -58l-306 -100q-16 19 -26 39t-16.5 46.5t-6.5 58.5v20l-198 -115q-93 -52 -182 -52q-65 0 -142 27q-99 36 -142.5 124.5t-43.5 220.5v535q0 35 -11 51.5t-33 22t-57 5.5h-69z" />
<glyph unicode="v" horiz-adv-x="1278" d="M31 1031v57h562v-57h-31q-63 0 -99 -10t-55 -48q-6 -13 -7 -28q0 -19 11 -49l265 -654l285 649q13 28 12 52q0 19 -9 38t-49.5 34.5t-81.5 15.5h-41v57h435v-57q-24 0 -39.5 -3t-34.5 -16q-41 -24 -63 -71l-441 -943h-69l-403 937q-20 47 -63 72q-30 17 -61 23z" />
<glyph unicode="w" horiz-adv-x="1777" d="M35 1031v57h554v-55h-54q-43 0 -72 -9.5t-45.5 -36.5t-16.5 -58q0 -17 3.5 -30.5t4.5 -20.5l158 -598l324 808h88l301 -816l175 570q9 31 11.5 42.5t2.5 30.5q0 33 -20 62.5t-49 41.5t-70 12h-33v57h436v-54q-46 0 -88 -27q-33 -20 -55 -67q-5 -9 -24 -63l-288 -877h-88 l-310 817l-329 -820h-91l-270 922q-11 33 -30.5 56t-41.5 36.5t-40 16.5t-43 3z" />
<glyph unicode="x" horiz-adv-x="1265" d="M41 0v54h35q22 0 34.5 5.5t37.5 20.5q57 38 112 109l270 354l-239 375q-36 55 -91 91q-35 22 -82 22h-24v57h503v-57h-24q-28 0 -40 -3t-19 -16.5t-7 -30.5q0 -28 17 -59l142 -233l200 270q9 13 9 26t-6 24q-5 8 -16.5 15t-32.5 7h-25v57h356v-57h-24q-17 0 -29.5 -1.5 t-42.5 -12.5q-44 -19 -92 -71q-8 -8 -28 -36l-220 -291l296 -454q20 -31 38 -51.5t47 -34.5q49 -25 94 -25h28v-54h-495v54h14q25 0 47 22q11 11 11 28q0 28 -22 61l-195 306l-216 -288q-20 -27 -20 -67q0 -25 7 -34q17 -28 63 -28h24v-54h-395z" />
<glyph unicode="y" horiz-adv-x="1282" d="M39 1031v57h569v-57h-84q-44 0 -65 -4.5t-34 -30.5q-3 -8 -5 -15q-2 -8 -1 -16q0 -17 8 -38l262 -667l285 625q14 28 15 56q0 25 -14.5 50.5t-48 32.5t-74.5 7h-52v57h445v-57h-12q-50 -5 -77 -31.5t-34 -34.5q-13 -16 -25 -41l-648 -1377q-11 -22 -27.5 -38.5 t-36.5 -24.5t-32 -11q-8 -2 -22 -2l-188 2v111l167 59q33 13 49.5 22t42.5 30.5t41 42.5t34 59l112 231l-399 902q-13 28 -25 47t-33 34q-6 5 -22.5 12.5t-35.5 7.5h-35z" />
<glyph unicode="z" horiz-adv-x="1020" d="M46 74l670 932h-310q-43 0 -75 -11t-62 -41q-38 -38 -47 -101l-8 -47h-49v282h751v-103l-639 -902h398q63 0 101.5 8t70.5 38q22 20 37 52t15 66v36h60v-283h-877z" />
<glyph unicode="{" horiz-adv-x="532" d="M24 652l42 22q24 11 43 27.5t35.5 44.5t22.5 87q2 19 1 53v410q0 69 14.5 119.5t48.5 79.5q69 61 169 62h79v-43l-16 -3q-25 -5 -38.5 -9.5t-30.5 -15.5q-38 -25 -58 -81t-20 -124v-381q0 -68 -11 -111.5t-44 -78.5q-14 -14 -25.5 -22t-54.5 -25l-25 -10l30 -14 q43 -16 75.5 -49t45.5 -78.5t13 -108.5v-383q0 -66 21 -121.5t59 -81.5q9 -6 27 -13t44 -12l14 -3v-42h-79q-54 0 -91.5 13t-74.5 45.5t-53.5 84.5t-16.5 118v409v51q-5 57 -22 86q-30 52 -76 74z" />
<glyph unicode="|" horiz-adv-x="465" d="M168 -532v2043h136v-2043h-136z" />
<glyph unicode="}" horiz-adv-x="530" d="M33 -214l16 3q27 5 38.5 9t30.5 16q38 25 60 81t22 122v381q0 66 11 109.5t45 78t76 50.5l32 13l-27 11q-36 16 -43 18q-19 11 -36 29q-31 31 -44 78.5t-13 111.5v381q0 66 -19.5 123t-57.5 82q-17 11 -30.5 15.5t-38.5 9.5l-16 3v43h79q54 0 91 -13.5t77 -48.5 q33 -28 48 -81.5t15 -118.5v-409q0 -19 2 -61.5t25 -81.5q14 -22 33 -39.5t43 -29.5l42 -22l-49 -24q-46 -24 -73 -74q-17 -28 -20.5 -66t-3.5 -71v-409q0 -65 -16.5 -117.5t-51.5 -84.5q-71 -60 -168 -60h-79v43z" />
<glyph unicode="~" horiz-adv-x="890" d="M60 1270l12 40q43 157 197 184q24 5 43 5q31 0 71 -13q24 -8 45 -16l101 -42q27 -11 52 -18t47 -7q25 0 54.5 11t48 26.5t36.5 47.5l12 23h65l-8 -30q-38 -162 -187 -201q-17 -5 -41 -6.5t-26 -1.5q-43 0 -92 19l-117 49q-31 13 -55 19t-50 6q-17 0 -35 -5 q-68 -16 -99 -71l-11 -19h-63z" />
<glyph unicode="&#xa1;" horiz-adv-x="401" d="M68 -398l102 1014h74l85 -1024q-1 -36 -43 -52q-30 -11 -85 -11q-54 0 -88 14q-46 19 -45 59zM69 910q0 58 38 100.5t106 42.5t105.5 -42.5t37.5 -100.5t-37 -100t-106 -42q-66 0 -105 42t-39 100z" />
<glyph unicode="&#xa2;" horiz-adv-x="1020" d="M65 568q0 183 99.5 316t274.5 190q50 17 90.5 22.5t68.5 5.5h27l31 151l98 -2l-36 -149l94 -21q19 -5 47 -14q17 -5 46 -17l82 -156l-102 -68l-57 71q-20 25 -36 44q-33 38 -66 62l-25 15l-196 -873q90 -46 183 -46q61 0 156 36q31 11 83 38l35 -61l-287 -137l-96 5 l-108 11l-38 -172h-96l47 198l-24 10q-153 63 -229 226q-66 140 -66 315zM271 601q0 -41 7 -112.5t39 -144.5t106 -147l188 847l-32 -2q-150 0 -233 -135q-76 -121 -75 -306z" />
<glyph unicode="&#xa3;" horiz-adv-x="1271" d="M52 5v63l52 23q28 13 50 28.5t43 39.5q44 49 74.5 209.5t30.5 325.5v65h-209v93h220l7 81q0 231 110 410q121 195 308 195q94 0 177 -22l50 -14q39 -11 49.5 -16t18.5 -14.5t15 -29.5l54 -162l-85 -18q-20 -6 -28 -3q-9 3 -22 19l-70 96q-33 46 -70.5 71t-88.5 25 q-110 0 -173 -196q-52 -164 -52 -377v-44h328v-94h-337v-51q0 -109 -9 -171t-42 -154q-25 -69 -56.5 -119.5t-84.5 -110.5l63 12q113 20 218 21q14 0 31.5 -1t65.5 -5t150.5 -59t135.5 -55q27 0 48 15t29 43.5t8 67.5q0 20 -2.5 44.5t-3.5 38.5l-11 89q-3 14 -3 20 q-2 13 1 17q5 5 6 7q13 3 18 4l71 35l59 -110q6 -13 12 -25.5t6 -26.5q2 -8 1 -22q0 -30 -12.5 -53.5t-39.5 -56.5l-44 -52q-43 -50 -103 -82t-93.5 -35t-48.5 -3.5t-35 -0.5q-71 0 -307 55q-109 25 -189 25q-17 0 -31 -1t-63 -7q-82 -14 -197 -47z" />
<glyph unicode="&#xa5;" horiz-adv-x="1363" d="M68 1455v56h507v-55h-45q-36 0 -61 -36q-16 -20 -16 -46q0 -13 6.5 -32.5t14.5 -36.5l272 -553l268 528q16 30 16 64q0 43 -24 71q-28 38 -74 38h-50v58h409v-50l-22 -3q-17 -2 -34 -12t-35.5 -21t-37.5 -41q-8 -13 -33 -63l-207 -413h271v-91h-311l-87 -161h398v-83 h-398v-400q0 -25 4 -43t17.5 -34.5t33 -23t50.5 -9.5l74 -6v-60h-573v58l43 3q31 2 63.5 6t50.5 25t23.5 42.5t5.5 51.5v390h-412v83h401l-74 161h-327v88h283l-205 409q-17 33 -31 56q-19 30 -34.5 44.5t-43.5 27.5t-51 13h-25z" />
<glyph unicode="&#xa7;" horiz-adv-x="1089" d="M71 628q0 74 38.5 145t109.5 107q58 30 157 44l36 6l-86 73q-71 60 -106 113q-43 65 -42 137q0 28 3 43q17 110 120 173q93 57 218 56q77 0 198.5 -15.5t159.5 -36.5l80 -127q9 -14 11 -17q3 -6 2 -13q-3 -13 -13 -17l-60 -32q-13 -6 -30 -6q-8 2 -23 11l-129 118 q-38 36 -87.5 50.5t-101.5 14.5q-68 0 -117 -22.5t-69 -77.5q-9 -27 -9 -47q0 -57 50 -110q31 -33 112 -88l368 -247q88 -60 136 -131.5t48 -161.5q0 -11 -1.5 -24t-1.5 -19q-13 -93 -80 -151q-61 -54 -164 -74l-88 -17l87 -55q153 -94 152 -261q0 -27 -4 -56 q-19 -121 -139 -187q-94 -52 -246 -66q-11 -2 -20 -2h-16q-87 0 -191.5 20t-143.5 40l-79 129q-11 17 -9 22q0 3 15 15l51 44q19 16 33 14q14 0 28 -18l88 -99q49 -54 114 -72q49 -14 140 -14q94 0 154 38.5t60 109.5q2 19 2 25q0 54 -35 97q-28 36 -87 74l-461 301 q-63 41 -97.5 105.5t-34.5 138.5zM206 705q0 -46 24.5 -84.5t68.5 -66.5l209 -140q47 -33 104 -52t114 -19q63 0 106.5 25t67.5 85q8 20 8 48q0 49 -32 96t-84 81l-230 150q-66 43 -151 43q-66 0 -118 -26t-73 -74q-14 -33 -14 -66z" />
<glyph unicode="&#xa8;" horiz-adv-x="780" d="M57 1410q0 43 26.5 73.5t78.5 30.5t82 -33t30 -78q0 -43 -27 -73.5t-79 -30.5t-81.5 33t-29.5 78zM501 1409q0 46 28 77.5t80 31.5q54 0 84 -35t30 -79q0 -46 -28.5 -77t-80.5 -31q-54 0 -83.5 34.5t-29.5 78.5z" />
<glyph unicode="&#xa9;" horiz-adv-x="1607" d="M65 756q0 302 184 510q206 231 557 231q349 0 556 -231q184 -208 184 -510q0 -301 -184 -509q-205 -231 -556 -231q-349 0 -556 231q-186 209 -185 509zM143 756q0 -269 166 -455q184 -207 497 -207q312 0 496 207q165 186 165 455t-165 456q-183 206 -496 206 q-312 0 -496 -206q-167 -187 -167 -456zM373 762q0 175 112 288q94 94 231 120q46 6 65 6.5t30 0.5q43 0 69.5 -2t64.5 -10l152 -36l18 -5l-26 -175h-34v71v13q0 25 -48 51t-80.5 31.5t-57.5 9.5t-60 4t-60 -7q-131 -28 -195 -126q-58 -88 -58 -215q0 -35 5 -71 q16 -135 113.5 -228t224.5 -93q87 0 141 14t105 41l26 14l10 -11l-21 -50l-28 -13q-36 -19 -107.5 -38t-131.5 -19q-192 0 -315 99.5t-142 270.5q-2 17 -2.5 36t-0.5 29z" />
<glyph unicode="&#xaa;" horiz-adv-x="610" d="M69 1097q0 50 33 89t87 61l184 71v37q0 49 -22 85q-23 37 -65 37q-31 0 -51.5 -13t-39.5 -39l-22 -37q-3 -6 -5 -9q-3 -6 -6 -6l-12 1l-29 8l-12 5q-2 3 1 17l16 52q3 13 8 16q33 24 72.5 32.5t81.5 8.5q13 0 32.5 -1.5t52.5 -7t64.5 -45t31.5 -93.5v-289q0 -25 3 -37 t13.5 -17t19.5 -5q11 0 24 5l14 5l8 -27l-151 -50q-16 22 -22 45.5t-6 39.5l-106 -73q-25 -16 -57 -15q-41 0 -77 25t-49.5 61t-13.5 63zM101 778v89h401v-89h-401zM168 1105q0 -46 25.5 -68t64.5 -22q8 0 28 3q44 11 65.5 53t21.5 99v110l-87 -35q-55 -20 -83 -52 q-35 -38 -35 -88z" />
<glyph unicode="&#xab;" horiz-adv-x="909" d="M66 614l400 368q17 17 33 8q8 -5 8 -14q0 -6 -11 -28l-228 -334l229 -348q6 -9 7 -19q0 -8 -7 -12q-14 -13 -29 3zM433 614l395 368q17 17 35 8q6 -5 6 -12q0 -6 -3 -15q-6 -11 -8 -15l-224 -334l229 -348q6 -9 6 -19q0 -7 -6 -12q-16 -9 -29 3z" />
<glyph unicode="&#xac;" horiz-adv-x="1611" d="M68 518v113h1484v-631h-123v518h-1361z" />
<glyph unicode="&#xad;" horiz-adv-x="604" d="M66 546v142h480v-142h-480z" />
<glyph unicode="&#xae;" horiz-adv-x="1605" d="M65 756q0 302 184 510q206 231 557 231q349 0 556 -231q184 -208 184 -510q0 -301 -184 -509q-205 -231 -556 -231q-349 0 -556 231q-186 209 -185 509zM143 756q0 -269 166 -455q184 -207 497 -207q312 0 496 207q165 186 165 455t-165 456q-183 206 -496 206 q-312 0 -496 -206q-167 -187 -167 -456zM463 351v35l33 3q43 0 59 16.5t16 44.5v609q0 24 -3 33q-2 6 -11 18t-32 15.5t-50 3.5h-12v34h20l147 -4q71 0 139 1.5t78 2.5h20q76 0 129 -22q72 -30 96 -93q6 -14 9.5 -33t3.5 -34q0 -50 -29 -97t-81 -80q-25 -17 -63 -30 q-20 -6 -46 -12l-9 -3l261 -345q6 -5 10 -8q14 -11 20 -14q6 -5 21 -8h9h8v-35h-11l-66 5l-66 -5l-15 -1l-325 420l4 19l41 -1q83 0 151 48.5t68 121.5q0 140 -134 159q-16 3 -49 3q-38 0 -55 -2.5t-47 -8.5l-17 -5v-652q0 -27 14 -45q9 -11 33.5 -14.5t30.5 -3.5l29 -3v-33 h-19q-2 0 -55.5 3t-87.5 3q-30 0 -68 -2t-79 -4h-20z" />
<glyph unicode="&#xb0;" horiz-adv-x="552" d="M68 1387q0 83 50 140q57 63 156 63q109 0 175 -74q60 -68 59 -162q0 -83 -50 -140q-57 -63 -156 -63q-109 0 -174 74q-60 68 -60 162zM156 1382q0 -57 38 -100t104 -43q58 0 89.5 34.5t31.5 85.5q0 57 -38 100t-104 43q-58 0 -89.5 -35t-31.5 -85z" />
<glyph unicode="&#xb1;" horiz-adv-x="1215" d="M63 694v143h479v470h138v-466h479v-145h-477v-477h-139v475h-480zM69 0v142h1093v-142h-1093z" />
<glyph unicode="&#xb4;" horiz-adv-x="590" d="M58 1173l358 382q11 11 22 11q8 0 25 -14l72 -61q18 -18 16 -29q0 -11 -11 -17l-397 -272h-85z" />
<glyph unicode="&#xb5;" horiz-adv-x="1205" d="M-2 -349q0 65 18 121q46 148 47 167l5 59v1080h182v-743q0 -91 55 -161t140 -70q88 0 177 68q94 72 94 162v744h178v-839q0 -65 31.5 -121.5t81.5 -56.5q11 0 18 2q72 14 96 94l16 59h39l-14 -66q-16 -79 -98 -139q-74 -54 -143 -54q-13 0 -19 2q-72 9 -129 69 q-61 65 -61 145l-56 -55q-69 -68 -143 -110.5t-132 -42.5q-54 0 -121 32q-82 38 -126 96v-76q0 -65 23 -130q54 -151 54 -224q0 -55 -29 -97.5t-80 -42.5q-46 0 -75 38.5t-29 89.5z" />
<glyph unicode="&#xb6;" horiz-adv-x="1276" d="M69 1214q0 60 21 111q43 113 156 164q94 43 240 43l32 -2q99 -6 199 -10t168 -4q69 0 150 1.5t166 4.5l27 2v-63h-22q-20 0 -63 -5.5t-66.5 -14.5t-39 -35.5t-15.5 -78.5v-19v-1374v-27q0 -41 29.5 -57.5t61 -22t63.5 -5.5l39 -1v-59h-34q-98 3 -217 5.5t-161 2.5 q-115 0 -219 -2.5t-179 -5.5h-35v62l50 3q28 2 59 3q43 6 64 28q33 35 33 84l-3 853h-24q-33 0 -102 19q-93 25 -179.5 71.5t-142.5 136t-56 192.5zM304 1185q0 -112 68.5 -198.5t183.5 -106.5l19 -3v568l-35 2q-94 9 -173 -77q-63 -69 -63 -185zM732 1444l2 -1597l132 2 l1 1596z" />
<glyph unicode="&#xb7;" horiz-adv-x="382" d="M63 719q0 57 35.5 96.5t101.5 39.5t102 -41t36 -99q0 -57 -33 -93q-38 -43 -104 -43t-102 41t-36 99z" />
<glyph unicode="&#xba;" d="M49 1209q0 121 81 207.5t205 86.5q115 0 196 -77.5t81 -197.5q0 -118 -82.5 -204t-202.5 -86q-115 0 -196.5 76.5t-81.5 194.5zM87 773v90h494v-90h-494zM157 1209q0 -87 48 -161t122 -74q83 0 131 76q43 69 43 178q0 91 -47.5 166t-118.5 75q-96 0 -141 -87 q-36 -69 -37 -173z" />
<glyph unicode="&#xbb;" horiz-adv-x="906" d="M68 250q0 9 4 19l230 347l-223 335q-11 19 -11 30q0 6 6 11q16 11 33 -7l397 -369l-402 -377q-13 -11 -28 -3q-6 5 -6 14zM430 981q0 6 6 11q14 11 35 -7l398 -369l-400 -377q-17 -13 -31 -3q-5 5 -5 14t5 19l231 347l-228 335q-11 19 -11 30z" />
<glyph unicode="&#xbf;" horiz-adv-x="928" d="M68 -124q0 98 44 173q36 63 123 140l152 134q27 24 46 48t34.5 56.5t21 51t5.5 51.5v86h110v-95q0 -46 -9 -83q-2 -8 -17.5 -57.5t-48 -97t-65.5 -94.5l-78 -126q-54 -88 -54 -205q0 -102 44 -168q50 -74 142 -74q50 0 91 27q17 11 74 66l69 67q8 9 11 13q6 8 15 8 q5 0 20 -10l55 -34q12 -7 14 -16q2 -11 -6 -27l-69 -119l-85 -24q-94 -27 -191 -27q-187 0 -310 82q-139 91 -138 254zM406 922q0 57 37 99t103 42q69 0 107 -42t38 -102q0 -57 -37 -98.5t-103 -41.5q-69 0 -107 42t-38 101z" />
<glyph unicode="&#xc0;" horiz-adv-x="1520" d="M109 0v54l19 3q47 6 81 33.5t54.5 63t38.5 87.5l490 1294h126l467 -1365q19 -60 65 -91q17 -13 32 -19t34 -6h17v-54h-502v54h29q46 0 81 31q22 17 22 61v26q-5 13 -6 17l-102 313h-551l-99 -278q-11 -27 -11 -60q0 -49 26 -76q39 -35 85 -34v-54h-396zM531 581h496 l-224 711zM628 1932q0 9 17 27l71 61q17 14 27 14q11 0 22 -11l370 -376h-93l-401 266q-13 8 -13 19z" />
<glyph unicode="&#xc1;" horiz-adv-x="1520" d="M38 0v54l19 3q47 6 81 33.5t54.5 63t38.5 87.5l490 1294h126l467 -1365q19 -60 65 -91q17 -13 32 -19t34 -6h17v-54h-502v54h29q46 0 81 31q22 17 22 61v26q-5 13 -6 17l-102 313h-551l-99 -278q-11 -27 -11 -60q0 -49 26 -76q39 -35 85 -34v-54h-396zM460 581h496 l-224 711zM530 1636l358 382q11 11 22 11q8 0 25 -14l72 -61q18 -18 16 -29q0 -11 -11 -17l-397 -272h-85z" />
<glyph unicode="&#xc2;" horiz-adv-x="1511" d="M38 0v54l19 3q47 6 81 33.5t54.5 63t38.5 87.5l490 1294h126l467 -1365q19 -60 65 -91q17 -13 32 -19t34 -6h17v-54h-502v54h29q46 0 81 31q22 17 22 61v26q-5 13 -6 17l-102 313h-551l-99 -278q-11 -27 -11 -60q0 -49 26 -76q39 -35 85 -34v-54h-396zM433 1637l278 369 h147l280 -369h-76l-277 228l-278 -228h-74zM460 581h496l-224 711z" />
<glyph unicode="&#xc3;" horiz-adv-x="1514" d="M62 0v54l19 3q47 6 81 33.5t54.5 63t38.5 87.5l490 1294h126l467 -1365q19 -60 65 -91q17 -13 32 -19t34 -6h17v-54h-502v54h29q46 0 81 31q22 17 22 61v26q-5 13 -6 17l-102 313h-551l-99 -278q-11 -27 -11 -60q0 -49 26 -76q39 -35 85 -34v-54h-396zM408 1629l12 40 q43 157 197 184q24 5 43 5q31 0 71 -13q24 -8 45 -16l101 -42q27 -11 52 -18t47 -7q25 0 54.5 11t48 26.5t36.5 47.5l12 23h65l-8 -30q-38 -162 -187 -201q-17 -5 -41 -6.5t-26 -1.5q-43 0 -92 19l-117 49q-31 13 -55 19t-50 6q-17 0 -35 -5q-68 -16 -99 -71l-11 -19h-63z M484 581h496l-224 711z" />
<glyph unicode="&#xc4;" horiz-adv-x="1514" d="M43 0v54l19 3q47 6 81 33.5t54.5 63t38.5 87.5l490 1294h126l467 -1365q19 -60 65 -91q17 -13 32 -19t34 -6h17v-54h-502v54h29q46 0 81 31q22 17 22 61v26q-5 13 -6 17l-102 313h-551l-99 -278q-11 -27 -11 -60q0 -49 26 -76q39 -35 85 -34v-54h-396zM457 1744 q0 43 26.5 73.5t78.5 30.5t82 -33t30 -78q0 -43 -27 -73.5t-79 -30.5t-81.5 33t-29.5 78zM465 581h496l-224 711zM901 1743q0 46 28 77.5t80 31.5q54 0 84 -35t30 -79q0 -46 -28.5 -77t-80.5 -31q-54 0 -83.5 34.5t-29.5 78.5z" />
<glyph unicode="&#xc5;" horiz-adv-x="1504" d="M33 0v54l19 3q47 6 81 33.5t54.5 63t38.5 87.5l490 1294h126l467 -1365q19 -60 65 -91q17 -13 32 -19t34 -6h17v-54h-502v54h29q46 0 81 31q22 17 22 61v26q-5 13 -6 17l-102 313h-551l-99 -278q-11 -27 -11 -60q0 -49 26 -76q39 -35 85 -34v-54h-396zM455 581h496 l-224 711zM567 1867q0 83 50 140q57 63 156 63q109 0 175 -74q60 -68 59 -162q0 -83 -50 -140q-57 -63 -156 -63q-109 0 -174 74q-60 68 -60 162zM655 1862q0 -57 38 -100t104 -43q58 0 89.5 34.5t31.5 85.5q0 57 -38 100t-104 43q-58 0 -89.5 -35t-31.5 -85z" />
<glyph unicode="&#xc6;" horiz-adv-x="2128" d="M9 -2l11 56l21 3q46 5 91 34q35 22 70.5 60.5t69.5 87.5l748 1094q16 24 24 42t4 37q-11 38 -63 38l-61 3v58h982v-348h-53l-19 84q-9 49 -21 75q-16 39 -45 68.5t-64 40.5t-79 11h-306v-617h195h40q71 5 104 34q27 24 37 51t15 68l4 36h55v-457h-56l-5 41q0 63 -49 112 q-22 22 -59.5 34t-94.5 12h-186v-466q0 -80 3 -98q9 -49 49.5 -82.5t127.5 -33.5h198q46 0 80.5 9t73.5 33q47 30 84 91q22 38 39 87l35 93l52 -2l-65 -387h-1072v55l72 10q33 3 50.5 10.5t35.5 24t23 35.5t5 52v314h-557l-185 -277q-38 -57 -37 -98q0 -20 12.5 -36 t31.5 -25.5t42 -7.5v-59h-408zM604 581h506v726z" />
<glyph unicode="&#xc7;" horiz-adv-x="1500" d="M72 712q0 334 235.5 573.5t566.5 239.5q113 0 181 -6q132 -13 228 -50l49 -21q9 -5 24 -10.5t28.5 -25t13.5 -53.5v-265h-55l-14 76q-24 135 -130.5 209t-266.5 74q-304 0 -466 -208q-143 -184 -143 -474q0 -312 122 -502q150 -231 455 -231q120 0 194 22q90 27 170 99 q38 35 65.5 73.5t51.5 87.5l25 56h56l-56 -250q-8 -35 -17.5 -50.5t-37.5 -28.5q-13 -6 -37 -12l-86 -26q-46 -13 -85.5 -20.5t-131.5 -16.5h-98t-96 -2l-50 -132q36 8 64 8q63 0 112.5 -27t67.5 -77q5 -16 6 -24q2 -8 1 -23q0 -82 -91 -135.5t-203 -53.5q-35 0 -68 6 t-61 20l-42 21l25 53l44 -11q25 -6 55.5 -10.5t57.5 -4.5q49 0 79.5 22.5t30.5 73.5v14q-3 38 -30.5 55t-68.5 17q-28 0 -41 -3l-38 -6l-17 17l90 205l-47 6q-274 41 -447.5 245.5t-173.5 485.5z" />
<glyph unicode="&#xc8;" horiz-adv-x="1218" d="M41 0v54l72 11q35 5 54 11t35.5 25.5t20.5 41t4 55.5v1151q0 33 -16.5 57.5t-44 34t-61.5 9.5l-64 3v58h982v-348h-53l-18 84q-16 58 -23 80q-16 39 -46.5 66t-63.5 38t-78 11h-305v-617h195h40q71 5 103 34q25 22 37 50t17 69l3 36h55v-457h-56l-4 41q-3 38 -14 62.5 t-34.5 48t-61.5 35.5t-93 12h-187v-466q0 -80 3 -98q9 -49 49.5 -82.5t127.5 -33.5h198q50 0 81.5 7.5t75.5 36t81 89.5q22 38 39 87l35 93l53 -2l-66 -387h-1072zM301 1914q0 9 17 27l71 61q17 14 27 14q11 0 22 -11l370 -376h-93l-401 266q-13 8 -13 19z" />
<glyph unicode="&#xc9;" horiz-adv-x="1238" d="M36 0v54l72 11q35 5 54 11t35.5 25.5t20.5 41t4 55.5v1151q0 33 -16.5 57.5t-44 34t-61.5 9.5l-64 3v58h982v-348h-53l-18 84q-16 58 -23 80q-16 39 -46.5 66t-63.5 38t-78 11h-305v-617h195h40q71 5 103 34q25 22 37 50t17 69l3 36h55v-457h-56l-4 41q-3 38 -14 62.5 t-34.5 48t-61.5 35.5t-93 12h-187v-466q0 -80 3 -98q9 -49 49.5 -82.5t127.5 -33.5h198q50 0 81.5 7.5t75.5 36t81 89.5q22 38 39 87l35 93l53 -2l-66 -387h-1072zM401 1645l358 382q11 11 22 11q8 0 25 -14l72 -61q18 -18 16 -29q0 -11 -11 -17l-397 -272h-85z" />
<glyph unicode="&#xca;" horiz-adv-x="1218" d="M41 0v54l72 11q35 5 54 11t35.5 25.5t20.5 41t4 55.5v1151q0 33 -16.5 57.5t-44 34t-61.5 9.5l-64 3v58h982v-348h-53l-18 84q-16 58 -23 80q-16 39 -46.5 66t-63.5 38t-78 11h-305v-617h195h40q71 5 103 34q25 22 37 50t17 69l3 36h55v-457h-56l-4 41q-3 38 -14 62.5 t-34.5 48t-61.5 35.5t-93 12h-187v-466q0 -80 3 -98q9 -49 49.5 -82.5t127.5 -33.5h198q50 0 81.5 7.5t75.5 36t81 89.5q22 38 39 87l35 93l53 -2l-66 -387h-1072zM216 1637l278 369h147l280 -369h-76l-277 228l-278 -228h-74z" />
<glyph unicode="&#xcb;" horiz-adv-x="1218" d="M41 0v54l72 11q35 5 54 11t35.5 25.5t20.5 41t4 55.5v1151q0 33 -16.5 57.5t-44 34t-61.5 9.5l-64 3v58h982v-348h-53l-18 84q-16 58 -23 80q-16 39 -46.5 66t-63.5 38t-78 11h-305v-617h195h40q71 5 103 34q25 22 37 50t17 69l3 36h55v-457h-56l-4 41q-3 38 -14 62.5 t-34.5 48t-61.5 35.5t-93 12h-187v-466q0 -80 3 -98q9 -49 49.5 -82.5t127.5 -33.5h198q50 0 81.5 7.5t75.5 36t81 89.5q22 38 39 87l35 93l53 -2l-66 -387h-1072zM189 1750q0 43 26.5 73.5t78.5 30.5t82 -33t30 -78q0 -43 -27 -73.5t-79 -30.5t-81.5 33t-29.5 78zM633 1749 q0 46 28 77.5t80 31.5q54 0 84 -35t30 -79q0 -46 -28.5 -77t-80.5 -31q-54 0 -83.5 34.5t-29.5 78.5z" />
<glyph unicode="&#xcc;" horiz-adv-x="708" d="M63 0v54l74 9q41 5 58.5 9.5t35.5 28t18 67.5v1183q0 17 -3.5 30.5t-14.5 27.5q-16 20 -42.5 30.5t-60.5 10.5l-65 3v58h579v-58l-78 -5q-31 0 -52 -8.5t-37 -30.5q-9 -13 -12 -29.5t-3 -33.5v-1179q0 -28 5.5 -45t24 -32.5t49.5 -20t61 -8.5l42 -7v-54h-579zM93 1914 q0 9 17 27l71 61q17 14 27 14q11 0 22 -11l370 -376h-93l-401 266q-13 8 -13 19z" />
<glyph unicode="&#xcd;" horiz-adv-x="717" d="M63 0v54l74 9q41 5 58.5 9.5t35.5 28t18 67.5v1183q0 17 -3.5 30.5t-14.5 27.5q-16 20 -42.5 30.5t-60.5 10.5l-65 3v58h579v-58l-78 -5q-31 0 -52 -8.5t-37 -30.5q-9 -13 -12 -29.5t-3 -33.5v-1179q0 -28 5.5 -45t24 -32.5t49.5 -20t61 -8.5l42 -7v-54h-579zM115 1636 l358 382q11 11 22 11q8 0 25 -14l72 -61q18 -18 16 -29q0 -11 -11 -17l-397 -272h-85z" />
<glyph unicode="&#xce;" horiz-adv-x="714" d="M-3 1637l278 369h147l280 -369h-76l-277 228l-278 -228h-74zM71 0v54l74 9q41 5 58.5 9.5t35.5 28t18 67.5v1183q0 17 -3.5 30.5t-14.5 27.5q-16 20 -42.5 30.5t-60.5 10.5l-65 3v58h579v-58l-78 -5q-31 0 -52 -8.5t-37 -30.5q-9 -13 -12 -29.5t-3 -33.5v-1179 q0 -28 5.5 -45t24 -32.5t49.5 -20t61 -8.5l42 -7v-54h-579z" />
<glyph unicode="&#xcf;" horiz-adv-x="695" d="M8 1750q0 43 26.5 73.5t78.5 30.5t82 -33t30 -78q0 -43 -27 -73.5t-79 -30.5t-81.5 33t-29.5 78zM52 0v54l74 9q41 5 58.5 9.5t35.5 28t18 67.5v1183q0 17 -3.5 30.5t-14.5 27.5q-16 20 -42.5 30.5t-60.5 10.5l-65 3v58h579v-58l-78 -5q-31 0 -52 -8.5t-37 -30.5 q-9 -13 -12 -29.5t-3 -33.5v-1179q0 -28 5.5 -45t24 -32.5t49.5 -20t61 -8.5l42 -7v-54h-579zM452 1749q0 46 28 77.5t80 31.5q54 0 84 -35t30 -79q0 -46 -28.5 -77t-80.5 -31q-54 0 -83.5 34.5t-29.5 78.5z" />
<glyph unicode="&#xd1;" horiz-adv-x="1726" d="M12 1444v58h391l985 -1173v931q0 30 -2.5 52t-22.5 53q-27 39 -68.5 59t-92.5 20h-53v58h527v-58h-31q-83 0 -132 -60q-22 -28 -28 -55t-6 -72v-1266h-70l-1054 1256v-1014q0 -36 4 -56.5t20 -46.5q25 -44 73 -64.5t97 -20.5h44v-54h-527v54h31q85 0 136 66 q22 27 27.5 53.5t5.5 73.5v1060q-38 65 -105.5 105.5t-148.5 40.5zM568 1637l12 40q43 157 197 184q24 5 43 5q31 0 71 -13q24 -8 45 -16l101 -42q27 -11 52 -18t47 -7q25 0 54.5 11t48 26.5t36.5 47.5l12 23h65l-8 -30q-38 -162 -187 -201q-17 -5 -41 -6.5t-26 -1.5 q-43 0 -92 19l-117 49q-31 13 -55 19t-50 6q-17 0 -35 -5q-68 -16 -99 -71l-11 -19h-63z" />
<glyph unicode="&#xd2;" horiz-adv-x="1671" d="M66 727q0 334 243 576q231 231 530 232q331 0 546 -203q225 -213 225 -561q0 -321 -234.5 -563.5t-552.5 -242.5q-298 0 -519 205q-238 220 -238 557zM315 756q0 -274 148 -487q156 -224 376 -223q268 0 401 203q125 189 125 532q0 260 -134 456q-154 228 -412 229 q-246 0 -380 -205q-124 -190 -124 -505zM556 1914q0 9 17 27l71 61q17 14 27 14q11 0 22 -11l370 -376h-93l-401 266q-13 8 -13 19z" />
<glyph unicode="&#xd3;" horiz-adv-x="1671" d="M66 727q0 334 243 576q231 231 530 232q331 0 546 -203q225 -213 225 -561q0 -321 -234.5 -563.5t-552.5 -242.5q-298 0 -519 205q-238 220 -238 557zM315 756q0 -274 148 -487q156 -224 376 -223q268 0 401 203q125 189 125 532q0 260 -134 456q-154 228 -412 229 q-246 0 -380 -205q-124 -190 -124 -505zM596 1636l358 382q11 11 22 11q8 0 25 -14l72 -61q18 -18 16 -29q0 -11 -11 -17l-397 -272h-85z" />
<glyph unicode="&#xd4;" horiz-adv-x="1671" d="M66 727q0 334 243 576q231 231 530 232q331 0 546 -203q225 -213 225 -561q0 -321 -234.5 -563.5t-552.5 -242.5q-298 0 -519 205q-238 220 -238 557zM315 756q0 -274 148 -487q156 -224 376 -223q268 0 401 203q125 189 125 532q0 260 -134 456q-154 228 -412 229 q-246 0 -380 -205q-124 -190 -124 -505zM490 1637l278 369h147l280 -369h-76l-277 228l-278 -228h-74z" />
<glyph unicode="&#xd5;" horiz-adv-x="1662" d="M66 727q0 334 243 576q231 231 530 232q331 0 546 -203q225 -213 225 -561q0 -321 -234.5 -563.5t-552.5 -242.5q-298 0 -519 205q-238 220 -238 557zM315 756q0 -274 148 -487q156 -224 376 -223q268 0 401 203q125 189 125 532q0 260 -134 456q-154 228 -412 229 q-246 0 -380 -205q-124 -190 -124 -505zM455 1635l12 40q43 157 197 184q24 5 43 5q31 0 71 -13q24 -8 45 -16l101 -42q27 -11 52 -18t47 -7q25 0 54.5 11t48 26.5t36.5 47.5l12 23h65l-8 -30q-38 -162 -187 -201q-17 -5 -41 -6.5t-26 -1.5q-43 0 -92 19l-117 49 q-31 13 -55 19t-50 6q-17 0 -35 -5q-68 -16 -99 -71l-11 -19h-63z" />
<glyph unicode="&#xd6;" horiz-adv-x="1662" d="M66 727q0 334 243 576q231 231 530 232q331 0 546 -203q225 -213 225 -561q0 -321 -234.5 -563.5t-552.5 -242.5q-298 0 -519 205q-238 220 -238 557zM315 756q0 -274 148 -487q156 -224 376 -223q268 0 401 203q125 189 125 532q0 260 -134 456q-154 228 -412 229 q-246 0 -380 -205q-124 -190 -124 -505zM540 1753q0 43 26.5 73.5t78.5 30.5t82 -33t30 -78q0 -43 -27 -73.5t-79 -30.5t-81.5 33t-29.5 78zM984 1752q0 46 28 77.5t80 31.5q54 0 84 -35t30 -79q0 -46 -28.5 -77t-80.5 -31q-54 0 -83.5 34.5t-29.5 78.5z" />
<glyph unicode="&#xd8;" horiz-adv-x="1667" d="M66 727q0 334 243 576q231 231 530 232q156 0 290.5 -49t240.5 -142l105 115l76 -60l-114 -122q83 -98 128 -225t45 -281q0 -321 -234.5 -563.5t-552.5 -242.5q-252 0 -455 153l-113 -123l-76 57l117 126q-109 104 -167 238q-63 145 -63 311zM315 756q0 -113 29 -224.5 t84 -208.5l819 888q-71 118 -173 182q-113 72 -255 73q-246 0 -380 -205q-124 -190 -124 -505zM483 242q72 -93 162 -144.5t194 -51.5q268 0 401 203q125 189 125 532q0 176 -71 340z" />
<glyph unicode="&#xd9;" horiz-adv-x="1643" d="M38 1453v58h579v-58l-79 -5q-31 0 -51.5 -8.5t-36.5 -30.5q-9 -13 -12.5 -29.5t-3.5 -33.5v-836q0 -186 95 -301q107 -131 308 -130q205 0 331 143q120 135 120 335v724q0 46 -9 75t-35.5 54.5t-55.5 34t-70 8.5h-30v58h511v-58h-25q-49 0 -78.5 -9.5t-56.5 -39.5 q-20 -24 -30 -62.5t-10 -63.5l-1 -721q0 -246 -161.5 -415t-417.5 -169q-271 0 -433 143.5t-162 390.5v844q0 17 -3.5 30.5t-14.5 27.5q-16 20 -42.5 30.5t-61.5 10.5zM584 1905q0 9 17 27l71 61q17 14 27 14q11 0 22 -11l370 -376h-93l-401 266q-13 8 -13 19z" />
<glyph unicode="&#xda;" horiz-adv-x="1643" d="M38 1453v58h579v-58l-79 -5q-31 0 -51.5 -8.5t-36.5 -30.5q-9 -13 -12.5 -29.5t-3.5 -33.5v-836q0 -186 95 -301q107 -131 308 -130q205 0 331 143q120 135 120 335v724q0 46 -9 75t-35.5 54.5t-55.5 34t-70 8.5h-30v58h511v-58h-25q-49 0 -78.5 -9.5t-56.5 -39.5 q-20 -24 -30 -62.5t-10 -63.5l-1 -721q0 -246 -161.5 -415t-417.5 -169q-271 0 -433 143.5t-162 390.5v844q0 17 -3.5 30.5t-14.5 27.5q-16 20 -42.5 30.5t-61.5 10.5zM606 1636l358 382q11 11 22 11q8 0 25 -14l72 -61q18 -18 16 -29q0 -11 -11 -17l-397 -272h-85z" />
<glyph unicode="&#xdb;" horiz-adv-x="1643" d="M38 1453v58h579v-58l-79 -5q-31 0 -51.5 -8.5t-36.5 -30.5q-9 -13 -12.5 -29.5t-3.5 -33.5v-836q0 -186 95 -301q107 -131 308 -130q205 0 331 143q120 135 120 335v724q0 46 -9 75t-35.5 54.5t-55.5 34t-70 8.5h-30v58h511v-58h-25q-49 0 -78.5 -9.5t-56.5 -39.5 q-20 -24 -30 -62.5t-10 -63.5l-1 -721q0 -246 -161.5 -415t-417.5 -169q-271 0 -433 143.5t-162 390.5v844q0 17 -3.5 30.5t-14.5 27.5q-16 20 -42.5 30.5t-61.5 10.5zM480 1646l278 369h147l280 -369h-76l-277 228l-278 -228h-74z" />
<glyph unicode="&#xdc;" horiz-adv-x="1638" d="M38 1453v58h579v-58l-79 -5q-31 0 -51.5 -8.5t-36.5 -30.5q-9 -13 -12.5 -29.5t-3.5 -33.5v-836q0 -186 95 -301q107 -131 308 -130q205 0 331 143q120 135 120 335v724q0 46 -9 75t-35.5 54.5t-55.5 34t-70 8.5h-30v58h511v-58h-25q-49 0 -78.5 -9.5t-56.5 -39.5 q-20 -24 -30 -62.5t-10 -63.5l-1 -721q0 -246 -161.5 -415t-417.5 -169q-271 0 -433 143.5t-162 390.5v844q0 17 -3.5 30.5t-14.5 27.5q-16 20 -42.5 30.5t-61.5 10.5zM551 1753q0 43 26.5 73.5t78.5 30.5t82 -33t30 -78q0 -43 -27 -73.5t-79 -30.5t-81.5 33t-29.5 78z M995 1752q0 46 28 77.5t80 31.5q54 0 84 -35t30 -79q0 -46 -28.5 -77t-80.5 -31q-54 0 -83.5 34.5t-29.5 78.5z" />
<glyph unicode="&#xdf;" horiz-adv-x="1312" d="M66 0v52l46 5q47 5 67.5 9.5t33 18.5t17.5 31.5t5 36.5v762h-128v58l129 42v174q0 165 123.5 280.5t290.5 115.5q172 0 271 -38q137 -52 149 -176q2 -13 2 -35q0 -52 -20.5 -96.5t-59.5 -96.5l-120 -150q-46 -60 -46 -118q0 -19 5 -45t23 -51t76 -66l118 -83 q110 -76 163 -150q63 -90 63 -203q0 -126 -99.5 -212.5t-234.5 -86.5q-88 0 -157.5 13.5t-121.5 46.5l-47 148q-6 16 -5 23q3 16 10 22l52 48l100 -156q49 -76 144 -76q79 0 129 53.5t50 140.5q0 54 -28.5 98.5t-83.5 87.5l-222 168q-50 38 -71 68q-25 38 -33 93q-2 8 -1 22 q0 54 30 108q22 41 74 103l104 124q28 35 40 77.5t12 90.5q0 52 -13 90q-25 80 -80 115q-47 28 -128 28q-113 0 -190 -88t-77 -208v-1035q0 -31 5.5 -52t23.5 -40.5t40 -25t61 -5.5l46 -3v-57h-537z" />
<glyph unicode="&#xe0;" horiz-adv-x="1051" d="M55 274q0 102 69 184q65 76 172 117l368 144v76q0 96 -42 165q-49 79 -131 79q-58 0 -103 -27.5t-79 -79.5l-48 -71q-6 -16 -9 -22q-5 -8 -13 -9q-6 -2 -12 0q-9 3 -13 3l-57 14q-19 3 -23 11q-6 9 3 33l31 107q6 25 15 32q66 44 146 62t165 18q44 0 74 -3.5t63 -9.5 q101 -16 164.5 -95.5t63.5 -186.5v-582q0 -55 9.5 -77t31.5 -32q8 -3 16 -4q8 -2 16 -2q19 0 46 10l28 9l16 -55l-304 -101q-16 24 -24.5 42t-16.5 43t-12 44t-4 41l-212 -143q-49 -33 -114 -33q-80 0 -154 50.5t-102 125.5q-11 28 -17.5 63t-6.5 60zM252 290q0 -88 55 -136 q49 -43 124 -42h30q19 5 29 6q87 20 133 112q43 80 43 190v222l-176 -69q-109 -41 -169 -105q-69 -74 -69 -178zM283 1502q0 9 17 27l71 61q17 14 27 14q11 0 22 -11l370 -376h-93l-401 266q-13 8 -13 19z" />
<glyph unicode="&#xe1;" horiz-adv-x="1059" d="M55 265q0 102 69 184q65 76 172 117l368 144v76q0 96 -42 165q-49 79 -131 79q-58 0 -103 -27.5t-79 -79.5l-48 -71q-6 -16 -9 -22q-5 -8 -13 -9q-6 -2 -12 0q-9 3 -13 3l-57 14q-19 3 -23 11q-6 9 3 33l31 107q6 25 15 32q66 44 146 62t165 18q44 0 74 -3.5t63 -9.5 q101 -16 164.5 -95.5t63.5 -186.5v-582q0 -55 9.5 -77t31.5 -32q8 -3 16 -4q8 -2 16 -2q19 0 46 10l28 9l16 -55l-304 -101q-16 24 -24.5 42t-16.5 43t-12 44t-4 41l-212 -143q-49 -33 -114 -33q-80 0 -154 50.5t-102 125.5q-11 28 -17.5 63t-6.5 60zM252 281q0 -88 55 -136 q49 -43 124 -42h30q19 5 29 6q87 20 133 112q43 80 43 190v222l-176 -69q-109 -41 -169 -105q-69 -74 -69 -178zM302 1220l358 382q11 11 22 11q8 0 25 -14l72 -61q18 -18 16 -29q0 -11 -11 -17l-397 -272h-85z" />
<glyph unicode="&#xe2;" horiz-adv-x="1056" d="M55 274q0 102 69 184q65 76 172 117l368 144v76q0 96 -42 165q-49 79 -131 79q-58 0 -103 -27.5t-79 -79.5l-48 -71q-6 -16 -9 -22q-5 -8 -13 -9q-6 -2 -12 0q-9 3 -13 3l-57 14q-19 3 -23 11q-6 9 3 33l31 107q6 25 15 32q66 44 146 62t165 18q44 0 74 -3.5t63 -9.5 q101 -16 164.5 -95.5t63.5 -186.5v-582q0 -55 9.5 -77t31.5 -32q8 -3 16 -4q8 -2 16 -2q19 0 46 10l28 9l16 -55l-304 -101q-16 24 -24.5 42t-16.5 43t-12 44t-4 41l-212 -143q-49 -33 -114 -33q-80 0 -154 50.5t-102 125.5q-11 28 -17.5 63t-6.5 60zM180 1220l278 369h147 l280 -369h-76l-277 228l-278 -228h-74zM252 290q0 -88 55 -136q49 -43 124 -42h30q19 5 29 6q87 20 133 112q43 80 43 190v222l-176 -69q-109 -41 -169 -105q-69 -74 -69 -178z" />
<glyph unicode="&#xe3;" horiz-adv-x="1060" d="M55 274q0 102 69 184q65 76 172 117l368 144v76q0 96 -42 165q-49 79 -131 79q-58 0 -103 -27.5t-79 -79.5l-48 -71q-6 -16 -9 -22q-5 -8 -13 -9q-6 -2 -12 0q-9 3 -13 3l-57 14q-19 3 -23 11q-6 9 3 33l31 107q6 25 15 32q66 44 146 62t165 18q44 0 74 -3.5t63 -9.5 q101 -16 164.5 -95.5t63.5 -186.5v-582q0 -55 9.5 -77t31.5 -32q8 -3 16 -4q8 -2 16 -2q19 0 46 10l28 9l16 -55l-304 -101q-16 24 -24.5 42t-16.5 43t-12 44t-4 41l-212 -143q-49 -33 -114 -33q-80 0 -154 50.5t-102 125.5q-11 28 -17.5 63t-6.5 60zM165 1215l12 40 q43 157 197 184q24 5 43 5q31 0 71 -13q24 -8 45 -16l101 -42q27 -11 52 -18t47 -7q25 0 54.5 11t48 26.5t36.5 47.5l12 23h65l-8 -30q-38 -162 -187 -201q-17 -5 -41 -6.5t-26 -1.5q-43 0 -92 19l-117 49q-31 13 -55 19t-50 6q-17 0 -35 -5q-68 -16 -99 -71l-11 -19h-63z M252 290q0 -88 55 -136q49 -43 124 -42h30q19 5 29 6q87 20 133 112q43 80 43 190v222l-176 -69q-109 -41 -169 -105q-69 -74 -69 -178z" />
<glyph unicode="&#xe4;" horiz-adv-x="1046" d="M55 274q0 102 69 184q65 76 172 117l368 144v76q0 96 -42 165q-49 79 -131 79q-58 0 -103 -27.5t-79 -79.5l-48 -71q-6 -16 -9 -22q-5 -8 -13 -9q-6 -2 -12 0q-9 3 -13 3l-57 14q-19 3 -23 11q-6 9 3 33l31 107q6 25 15 32q66 44 146 62t165 18q44 0 74 -3.5t63 -9.5 q101 -16 164.5 -95.5t63.5 -186.5v-582q0 -55 9.5 -77t31.5 -32q8 -3 16 -4q8 -2 16 -2q19 0 46 10l28 9l16 -55l-304 -101q-16 24 -24.5 42t-16.5 43t-12 44t-4 41l-212 -143q-49 -33 -114 -33q-80 0 -154 50.5t-102 125.5q-11 28 -17.5 63t-6.5 60zM205 1328 q0 43 26.5 73.5t78.5 30.5t82 -33t30 -78q0 -43 -27 -73.5t-79 -30.5t-81.5 33t-29.5 78zM252 290q0 -88 55 -136q49 -43 124 -42h30q19 5 29 6q87 20 133 112q43 80 43 190v222l-176 -69q-109 -41 -169 -105q-69 -74 -69 -178zM649 1327q0 46 28 77.5t80 31.5q54 0 84 -35 t30 -79q0 -46 -28.5 -77t-80.5 -31q-54 0 -83.5 34.5t-29.5 78.5z" />
<glyph unicode="&#xe5;" horiz-adv-x="1059" d="M55 274q0 102 69 184q65 76 172 117l368 144v76q0 96 -42 165q-49 79 -131 79q-58 0 -103 -27.5t-79 -79.5l-48 -71q-6 -16 -9 -22q-5 -8 -13 -9q-6 -2 -12 0q-9 3 -13 3l-57 14q-19 3 -23 11q-6 9 3 33l31 107q6 25 15 32q66 44 146 62t165 18q44 0 74 -3.5t63 -9.5 q101 -16 164.5 -95.5t63.5 -186.5v-582q0 -55 9.5 -77t31.5 -32q8 -3 16 -4q8 -2 16 -2q19 0 46 10l28 9l16 -55l-304 -101q-16 24 -24.5 42t-16.5 43t-12 44t-4 41l-212 -143q-49 -33 -114 -33q-80 0 -154 50.5t-102 125.5q-11 28 -17.5 63t-6.5 60zM252 290q0 -88 55 -136 q49 -43 124 -42h30q19 5 29 6q87 20 133 112q43 80 43 190v222l-176 -69q-109 -41 -169 -105q-69 -74 -69 -178zM309 1458q0 83 50 140q57 63 156 63q109 0 175 -74q60 -68 59 -162q0 -83 -50 -140q-57 -63 -156 -63q-109 0 -174 74q-60 68 -60 162zM397 1453q0 -57 38 -100 t104 -43q58 0 89.5 34.5t31.5 85.5q0 57 -38 100t-104 43q-58 0 -89.5 -35t-31.5 -85z" />
<glyph unicode="&#xe6;" horiz-adv-x="1622" d="M55 274q0 102 69 184q65 76 172 117l368 144v76q0 96 -42 165q-49 79 -131 79q-58 0 -103 -27.5t-79 -79.5l-48 -71q-6 -16 -9 -22q-5 -8 -13 -9q-6 -2 -12 0q-9 3 -13 3l-57 14q-19 3 -23 11q-6 9 3 33l31 107q6 25 15 32q66 44 146 62t165 18q44 0 74 -3.5t79.5 -12 t104.5 -49.5q44 -33 67 -75q57 55 137 88q96 39 212 39q168 0 280 -123q107 -118 107 -288v-94h-696v-68q0 -167 101 -288t260 -140q38 -5 68 -5q65 0 137 32l94 44l35 -60l-280 -137h-40q-93 0 -151 10q-87 14 -159 56q-60 35 -108.5 82t-72.5 93l-178 -134 q-65 -49 -127 -71.5t-115 -22.5q-87 0 -156 52q-61 46 -88 116q-11 28 -17.5 63t-6.5 60zM252 290q0 -88 55 -136q49 -43 124 -42h30q19 5 29 6q87 20 133 112q43 80 43 190v222l-176 -69q-109 -41 -169 -105q-69 -74 -69 -178zM859 669h385q44 0 71.5 9.5t46.5 39.5 q9 14 14 34.5t5 39.5q0 87 -68 159q-72 79 -170 79q-121 0 -201.5 -93t-80.5 -229z" />
<glyph unicode="&#xe7;" horiz-adv-x="1035" d="M58 553q0 214 145 369q165 179 446 180q76 0 137 -12t125 -45l82 -162l-104 -60l-116 133q-36 39 -74 54.5t-85 15.5q-172 0 -265 -130q-82 -116 -81 -307q0 -222 126 -364q121 -137 300 -137q33 0 65.5 6.5t68.5 23.5l105 50l35 -61l-274 -131q-28 -5 -40.5 -6t-39.5 -1 l-68 3l-49 -123q27 6 63 6q63 0 113.5 -26t67.5 -76q5 -16 7 -24t1 -23q0 -83 -91 -137t-203 -54q-71 0 -129 27l-43 22l27 53l43 -11q35 -9 58 -13t55 -4q49 0 79.5 23t30.5 73v16q-3 36 -30.5 53.5t-68.5 17.5q-28 0 -41 -3l-38 -7l-15 18l89 204q-198 47 -310 214 q-104 154 -104 355z" />
<glyph unicode="&#xe8;" horiz-adv-x="1023" d="M60 542q0 230 121 384q134 172 367 171q187 0 302 -123q110 -116 110 -288v-94h-696v-68q0 -172 115 -297q121 -134 299 -134h27q46 0 59.5 3t65.5 27l94 44l35 -60l-281 -137q-285 0 -451.5 156t-166.5 416zM268 669h381q44 0 71.5 9.5t46.5 39.5q9 14 14 34.5t5 39.5 q0 87 -68 159q-72 79 -170 79q-121 0 -200 -93t-79 -229zM288 1500q0 9 17 27l71 61q17 14 27 14q11 0 22 -11l370 -376h-93l-401 266q-13 8 -13 19z" />
<glyph unicode="&#xe9;" horiz-adv-x="1015" d="M60 542q0 230 121 384q134 172 367 171q187 0 302 -123q110 -116 110 -288v-94h-696v-68q0 -172 115 -297q121 -134 299 -134h27q46 0 59.5 3t65.5 27l94 44l35 -60l-281 -137q-285 0 -451.5 156t-166.5 416zM268 669h381q44 0 71.5 9.5t46.5 39.5q9 14 14 34.5t5 39.5 q0 87 -68 159q-72 79 -170 79q-121 0 -200 -93t-79 -229zM315 1219l358 382q11 11 22 11q8 0 25 -14l72 -61q18 -18 16 -29q0 -11 -11 -17l-397 -272h-85z" />
<glyph unicode="&#xea;" horiz-adv-x="1015" d="M60 542q0 230 121 384q134 172 367 171q187 0 302 -123q110 -116 110 -288v-94h-696v-68q0 -172 115 -297q121 -134 299 -134h27q46 0 59.5 3t65.5 27l94 44l35 -60l-281 -137q-285 0 -451.5 156t-166.5 416zM211 1213l278 369h147l280 -369h-76l-277 228l-278 -228h-74z M268 669h381q44 0 71.5 9.5t46.5 39.5q9 14 14 34.5t5 39.5q0 87 -68 159q-72 79 -170 79q-121 0 -200 -93t-79 -229z" />
<glyph unicode="&#xeb;" horiz-adv-x="1005" d="M60 542q0 230 121 384q134 172 367 171q187 0 302 -123q110 -116 110 -288v-94h-696v-68q0 -172 115 -297q121 -134 299 -134h27q46 0 59.5 3t65.5 27l94 44l35 -60l-281 -137q-285 0 -451.5 156t-166.5 416zM232 1328q0 43 26.5 73.5t78.5 30.5t82 -33t30 -78 q0 -43 -27 -73.5t-79 -30.5t-81.5 33t-29.5 78zM268 669h381q44 0 71.5 9.5t46.5 39.5q9 14 14 34.5t5 39.5q0 87 -68 159q-72 79 -170 79q-121 0 -200 -93t-79 -229zM676 1327q0 46 28 77.5t80 31.5q54 0 84 -35t30 -79q0 -46 -28.5 -77t-80.5 -31q-54 0 -83.5 34.5 t-29.5 78.5z" />
<glyph unicode="&#xec;" d="M49 0v55l39 3q41 0 67 5.5t43 23.5q11 9 16.5 21.5t5.5 42.5v27v688v25q0 24 -11 40.5t-32 22t-53 5.5h-64v53q44 0 78.5 4t91 16.5t93.5 25t96 41.5v-918v-27q0 -22 4 -37t19 -28t37.5 -18.5t52.5 -9.5l54 -6v-55h-537zM79 1502q0 9 17 27l71 61q17 14 27 14 q11 0 22 -11l370 -376h-93l-402 266q-13 8 -12 19z" />
<glyph unicode="&#xed;" d="M49 0v55l39 3q41 0 67 5.5t43 23.5q11 9 16.5 21.5t5.5 42.5v27v688v25q0 24 -11 40.5t-32 22t-53 5.5h-64v53q44 0 78.5 4t91 16.5t93.5 25t96 41.5v-918v-27q0 -22 4 -37t19 -28t37.5 -18.5t52.5 -9.5l54 -6v-55h-537zM65 1222l357 382q11 11 22 11q8 0 25 -14l73 -61 q17 -18 15 -29q0 -11 -11 -17l-396 -272h-85z" />
<glyph unicode="&#xee;" horiz-adv-x="659" d="M-19 1218l279 369h146l280 -369h-75l-277 229l-279 -229h-74zM58 0v55l40 3q41 0 66.5 5.5t43.5 23.5q11 9 16.5 21.5t5.5 42.5v27v688v25q0 24 -11 40.5t-32.5 22t-52.5 5.5h-65v53q44 0 79 4t91.5 16.5t93.5 25t95 41.5v-918v-27q0 -22 4 -37t19 -28t38 -18.5t53 -9.5 l53 -6v-55h-537z" />
<glyph unicode="&#xef;" d="M-14 1332q0 43 26.5 73.5t78.5 30.5t82 -33t30 -79q0 -43 -26.5 -73.5t-78.5 -30.5t-82 33t-30 79zM49 0v55l39 3q41 0 67 5.5t43 23.5q11 9 16.5 21.5t5.5 42.5v27v688v25q0 24 -11 40.5t-32 22t-53 5.5h-64v53q44 0 78.5 4t91 16.5t93.5 25t96 41.5v-918v-27 q0 -22 4 -37t19 -28t37.5 -18.5t52.5 -9.5l54 -6v-55h-537zM430 1330q0 46 28 77.5t80 31.5q54 0 84 -34.5t30 -79.5q0 -46 -28.5 -77t-80.5 -31q-54 0 -83.5 34.5t-29.5 78.5z" />
<glyph unicode="&#xf1;" horiz-adv-x="1341" d="M21 -9v54l39 3q36 0 64.5 7t44 22t19.5 30.5t4 42.5v20v687q0 27 -2.5 38t-13.5 29t-32 22t-60 4h-63v53q85 0 179 22q55 13 93.5 28t92.5 43v-184l49 42q82 72 174 108t191 36q30 0 66 -5t68 -13q107 -28 155 -127q41 -83 41 -221v-558v-29q0 -25 4 -40t19 -29t46 -19 t48 -6l50 -6v-54h-533v54l39 3q72 0 107 34q9 8 15 22.5t6 40.5v25v490q0 142 -24 198q-39 93 -162 115q-33 5 -63 5q-137 0 -219 -110q-74 -99 -74 -241l2 -455v-27q0 -22 3.5 -36t18.5 -28q31 -30 91 -30l53 -6v-54h-536zM296 1215l12 40q43 157 197 184q24 5 43 5 q31 0 71 -13q24 -8 45 -16l101 -42q27 -11 52 -18t47 -7q25 0 54.5 11t48 26.5t36.5 47.5l12 23h65l-8 -30q-38 -162 -187 -201q-17 -5 -41 -6.5t-26 -1.5q-43 0 -92 19l-117 49q-31 13 -55 19t-50 6q-17 0 -35 -5q-68 -16 -99 -71l-11 -19h-63z" />
<glyph unicode="&#xf2;" horiz-adv-x="1248" d="M66 519q0 241 159 411q165 176 413 177q230 0 392 -157.5t162 -393.5t-164.5 -407t-405.5 -171q-227 0 -389 151q-167 156 -167 390zM282 519q0 -178 90 -316q99 -153 250 -153q168 0 263 151q85 138 85 355q0 184 -92 327q-99 154 -240 154q-194 0 -285 -174 q-71 -135 -71 -344zM376 1500q0 9 17 27l71 61q17 14 27 14q11 0 22 -11l370 -376h-93l-401 266q-13 8 -13 19z" />
<glyph unicode="&#xf3;" horiz-adv-x="1248" d="M66 519q0 241 159 411q165 176 413 177q230 0 392 -157.5t162 -393.5t-164.5 -407t-405.5 -171q-227 0 -389 151q-167 156 -167 390zM282 519q0 -178 90 -316q99 -153 250 -153q168 0 263 151q85 138 85 355q0 184 -92 327q-99 154 -240 154q-194 0 -285 -174 q-71 -135 -71 -344zM426 1222l358 382q11 11 22 11q8 0 25 -14l72 -61q18 -18 16 -29q0 -11 -11 -17l-397 -272h-85z" />
<glyph unicode="&#xf4;" horiz-adv-x="1259" d="M66 519q0 241 159 411q165 176 413 177q230 0 392 -157.5t162 -393.5t-164.5 -407t-405.5 -171q-227 0 -389 151q-167 156 -167 390zM282 519q0 -178 90 -316q99 -153 250 -153q168 0 263 151q85 138 85 355q0 184 -92 327q-99 154 -240 154q-194 0 -285 -174 q-71 -135 -71 -344zM299 1217l278 369h147l280 -369h-76l-277 228l-278 -228h-74z" />
<glyph unicode="&#xf5;" horiz-adv-x="1249" d="M66 519q0 241 159 411q165 176 413 177q230 0 392 -157.5t162 -393.5t-164.5 -407t-405.5 -171q-227 0 -389 151q-167 156 -167 390zM239 1215l12 40q43 157 197 184q24 5 43 5q31 0 71 -13q24 -8 45 -16l101 -42q27 -11 52 -18t47 -7q25 0 54.5 11t48 26.5t36.5 47.5 l12 23h65l-8 -30q-38 -162 -187 -201q-17 -5 -41 -6.5t-26 -1.5q-43 0 -92 19l-117 49q-31 13 -55 19t-50 6q-17 0 -35 -5q-68 -16 -99 -71l-11 -19h-63zM282 519q0 -178 90 -316q99 -153 250 -153q168 0 263 151q85 138 85 355q0 184 -92 327q-99 154 -240 154 q-194 0 -285 -174q-71 -135 -71 -344z" />
<glyph unicode="&#xf6;" horiz-adv-x="1253" d="M66 519q0 241 159 411q165 176 413 177q230 0 392 -157.5t162 -393.5t-164.5 -407t-405.5 -171q-227 0 -389 151q-167 156 -167 390zM282 519q0 -178 90 -316q99 -153 250 -153q168 0 263 151q85 138 85 355q0 184 -92 327q-99 154 -240 154q-194 0 -285 -174 q-71 -135 -71 -344zM337 1328q0 43 26.5 73.5t78.5 30.5t82 -33t30 -78q0 -43 -27 -73.5t-79 -30.5t-81.5 33t-29.5 78zM781 1327q0 46 28 77.5t80 31.5q54 0 84 -35t30 -79q0 -46 -28.5 -77t-80.5 -31q-54 0 -83.5 34.5t-29.5 78.5z" />
<glyph unicode="&#xf7;" horiz-adv-x="1199" d="M65 549v140h1087v-140h-1087zM486 253q0 50 31 84.5t87 34.5q58 0 95 -40q31 -35 31 -86q0 -49 -30.5 -83t-88.5 -34t-91.5 38t-33.5 86zM486 995q0 50 31 84t87 34q58 0 95 -39q31 -35 31 -87q0 -49 -30.5 -82.5t-88.5 -33.5t-91.5 37.5t-33.5 86.5z" />
<glyph unicode="&#xf8;" horiz-adv-x="1267" d="M66 519q0 241 159 411q165 176 413 177q96 0 180 -28.5t158 -83.5l96 108l76 -55l-103 -116q69 -74 108 -170.5t39 -205.5q0 -236 -164.5 -407t-405.5 -171q-178 0 -324 99l-90 -102l-76 56l93 106q-76 74 -117.5 171t-41.5 211zM282 519q0 -135 56 -253l540 617 q-47 72 -106.5 113t-133.5 41q-194 0 -285 -174q-71 -135 -71 -344zM389 181q46 -61 104 -96t129 -35q168 0 263 151q85 138 85 355q0 124 -46 237z" />
<glyph unicode="&#xf9;" horiz-adv-x="1312" d="M44 959v53q87 0 186 22q54 14 89 28.5t95 44.5v-690q0 -140 24 -198q39 -96 162 -115q28 -5 53 -5q134 0 206 112q63 98 63 241v412q0 24 -1.5 37.5t-14 32t-37 22t-54.5 3.5h-63v53q63 0 111 8q6 2 64 15t97 28t92 45v-880q0 -41 11 -70t41 -38q13 -5 24 -5q14 0 27.5 4 t20.5 7l24 8l13 -58l-306 -100q-16 19 -26 39t-16.5 46.5t-6.5 58.5v20l-198 -115q-93 -52 -182 -52q-65 0 -142 27q-99 36 -142.5 124.5t-43.5 220.5v535q0 35 -11 51.5t-33 22t-57 5.5h-69zM456 1500q0 9 17 27l71 61q17 14 27 14q11 0 22 -11l370 -376h-93l-401 266 q-13 8 -13 19z" />
<glyph unicode="&#xfa;" horiz-adv-x="1320" d="M39 950v53q87 0 186 22q54 14 89 28.5t95 44.5v-690q0 -140 24 -198q39 -96 162 -115q28 -5 53 -5q134 0 206 112q63 98 63 241v412q0 24 -1.5 37.5t-14 32t-37 22t-54.5 3.5h-63v53q63 0 111 8q6 2 64 15t97 28t92 45v-880q0 -41 11 -70t41 -38q13 -5 24 -5q14 0 27.5 4 t20.5 7l24 8l13 -58l-306 -100q-16 19 -26 39t-16.5 46.5t-6.5 58.5v20l-198 -115q-93 -52 -182 -52q-65 0 -142 27q-99 36 -142.5 124.5t-43.5 220.5v535q0 35 -11 51.5t-33 22t-57 5.5h-69zM467 1222l358 382q11 11 22 11q8 0 25 -14l72 -61q18 -18 16 -29q0 -11 -11 -17 l-397 -272h-85z" />
<glyph unicode="&#xfb;" horiz-adv-x="1308" d="M44 959v53q87 0 186 22q54 14 89 28.5t95 44.5v-690q0 -140 24 -198q39 -96 162 -115q28 -5 53 -5q134 0 206 112q63 98 63 241v412q0 24 -1.5 37.5t-14 32t-37 22t-54.5 3.5h-63v53q63 0 111 8q6 2 64 15t97 28t92 45v-880q0 -41 11 -70t41 -38q13 -5 24 -5q14 0 27.5 4 t20.5 7l24 8l13 -58l-306 -100q-16 19 -26 39t-16.5 46.5t-6.5 58.5v20l-198 -115q-93 -52 -182 -52q-65 0 -142 27q-99 36 -142.5 124.5t-43.5 220.5v535q0 35 -11 51.5t-33 22t-57 5.5h-69zM348 1213l278 369h147l280 -369h-76l-277 228l-278 -228h-74z" />
<glyph unicode="&#xfc;" horiz-adv-x="1312" d="M44 959v53q87 0 186 22q54 14 89 28.5t95 44.5v-690q0 -140 24 -198q39 -96 162 -115q28 -5 53 -5q134 0 206 112q63 98 63 241v412q0 24 -1.5 37.5t-14 32t-37 22t-54.5 3.5h-63v53q63 0 111 8q6 2 64 15t97 28t92 45v-880q0 -41 11 -70t41 -38q13 -5 24 -5q14 0 27.5 4 t20.5 7l24 8l13 -58l-306 -100q-16 19 -26 39t-16.5 46.5t-6.5 58.5v20l-198 -115q-93 -52 -182 -52q-65 0 -142 27q-99 36 -142.5 124.5t-43.5 220.5v535q0 35 -11 51.5t-33 22t-57 5.5h-69zM384 1328q0 43 26.5 73.5t78.5 30.5t82 -33t30 -78q0 -43 -27 -73.5t-79 -30.5 t-81.5 33t-29.5 78zM828 1327q0 46 28 77.5t80 31.5q54 0 84 -35t30 -79q0 -46 -28.5 -77t-80.5 -31q-54 0 -83.5 34.5t-29.5 78.5z" />
<glyph unicode="&#xfd;" horiz-adv-x="0" />
<glyph unicode="&#xff;" horiz-adv-x="1293" d="M39 1031v57h569v-57h-84q-44 0 -65 -4.5t-34 -30.5q-3 -8 -5 -15q-2 -8 -1 -16q0 -17 8 -38l262 -667l285 625q14 28 15 56q0 25 -14.5 50.5t-48 32.5t-74.5 7h-52v57h445v-57h-12q-50 -5 -77 -31.5t-34 -34.5q-13 -16 -25 -41l-648 -1377q-11 -22 -27.5 -38.5 t-36.5 -24.5t-32 -11q-8 -2 -22 -2l-188 2v111l167 59q33 13 49.5 22t42.5 30.5t41 42.5t34 59l112 231l-399 902q-13 28 -25 47t-33 34q-6 5 -22.5 12.5t-35.5 7.5h-35zM408 1334q0 43 26.5 73.5t78.5 30.5t82 -33t30 -78q0 -43 -27 -73.5t-79 -30.5t-81.5 33t-29.5 78z M852 1333q0 46 28 77.5t80 31.5q54 0 84 -35t30 -79q0 -46 -28.5 -77t-80.5 -31q-54 0 -83.5 34.5t-29.5 78.5z" />
<glyph unicode="&#x152;" horiz-adv-x="2112" d="M66 756q0 321 247 555q235 224 523 224q43 0 107 -8t91 -16h869v-348h-53l-18 84q-16 58 -23 80q-16 39 -46.5 66t-64 38t-77.5 11h-305v-617h195h40q71 5 103 34q25 22 37 50t17 69l3 36h55v-457h-56l-4 41q-3 38 -14 62.5t-34.5 48t-61.5 35.5t-93 12h-187v-466 q0 -80 3 -98q9 -49 49.5 -82.5t126.5 -33.5h199q50 0 81.5 7.5t75.5 36t81 89.5q22 38 39 87l34 93l54 -2l-66 -387h-956q-85 -25 -107 -29t-105 -4q-327 0 -543 228t-216 561zM315 756q0 -282 149 -487q164 -224 419 -223q60 0 117.5 18t104.5 46v1264q-74 52 -134 72 t-159 20q-235 0 -366 -198t-131 -512z" />
<glyph unicode="&#x153;" horiz-adv-x="1950" d="M66 519q0 241 159 411q165 176 413 177q134 0 250 -58.5t193 -160.5q63 98 158 151q102 58 236 58q187 0 302 -123q110 -116 110 -288v-94h-695v-68q0 -172 115 -297q121 -134 299 -134h26q46 0 59.5 3t65.5 27l94 44l35 -60l-280 -137q-186 0 -318.5 59t-210.5 180 q-77 -105 -197 -168t-258 -63q-227 0 -389 151q-167 156 -167 390zM282 519q0 -178 90 -316q99 -153 250 -153q168 0 263 151q85 138 85 355q0 184 -92 327q-99 154 -240 154q-194 0 -285 -174q-71 -135 -71 -344zM1195 669h381q44 0 71.5 9.5t46.5 39.5q9 14 14 34.5 t5 39.5q0 87 -68 159q-72 79 -170 79q-121 0 -200 -93t-79 -229z" />
<glyph unicode="&#x178;" horiz-adv-x="1435" d="M44 1453v58h549v-58h-44q-30 0 -51 -7t-32 -27t-11 -48q0 -33 17 -68l284 -591l308 568q25 43 25 79q0 25 -12 45q-28 49 -93 49h-52v58h442v-58h-20q-20 0 -37 -5.5t-36 -18.5q-46 -36 -74 -89l-352 -646q-8 -13 -14 -25q-13 -22 -18.5 -45t-7 -38t-1.5 -40v-370 q0 -30 4 -46.5t18 -31.5t34.5 -22.5t48.5 -10.5l76 -11v-54h-575v54h43q43 0 68.5 7.5t47.5 32.5q16 17 22.5 40t6.5 52v425l-367 716q-9 20 -30 44q-25 31 -44 45.5t-46 25.5t-52 11h-25zM425 1750q0 43 26.5 73.5t78.5 30.5t82 -33t30 -78q0 -43 -27 -73.5t-79 -30.5 t-81.5 33t-29.5 78zM869 1749q0 46 28 77.5t80 31.5q54 0 84 -35t30 -79q0 -46 -28.5 -77t-80.5 -31q-54 0 -83.5 34.5t-29.5 78.5z" />
<glyph unicode="&#x2000;" horiz-adv-x="1035" />
<glyph unicode="&#x2001;" horiz-adv-x="2070" />
<glyph unicode="&#x2002;" horiz-adv-x="1035" />
<glyph unicode="&#x2003;" horiz-adv-x="2070" />
<glyph unicode="&#x2004;" horiz-adv-x="690" />
<glyph unicode="&#x2005;" horiz-adv-x="517" />
<glyph unicode="&#x2006;" horiz-adv-x="345" />
<glyph unicode="&#x2007;" horiz-adv-x="345" />
<glyph unicode="&#x2008;" horiz-adv-x="258" />
<glyph unicode="&#x2009;" horiz-adv-x="414" />
<glyph unicode="&#x200a;" horiz-adv-x="115" />
<glyph unicode="&#x2010;" horiz-adv-x="604" d="M66 546v142h480v-142h-480z" />
<glyph unicode="&#x2011;" horiz-adv-x="604" d="M66 546v142h480v-142h-480z" />
<glyph unicode="&#x2012;" horiz-adv-x="604" d="M66 546v142h480v-142h-480z" />
<glyph unicode="&#x2013;" horiz-adv-x="883" d="M72 546v140h762v-140h-762z" />
<glyph unicode="&#x2014;" horiz-adv-x="1638" d="M65 546v140h1508v-140h-1508z" />
<glyph unicode="&#x2018;" horiz-adv-x="472" d="M68 1088q0 24 14 50l271 446l74 -71l-57 -84q-33 -50 -51 -92.5t-28 -96.5q-3 -13 -3 -28.5v-22.5q0 -30 6.5 -80.5t6.5 -66.5q0 -27 -24 -49l-74 -64q-24 -20 -39 -19q-13 0 -23 9.5t-18 21.5l-29 57q-16 27 -22 46.5t-4 43.5z" />
<glyph unicode="&#x2019;" horiz-adv-x="481" d="M63 987l57 83q63 91 78 191q3 14 3 28v22q0 30 -6 80.5t-6 66.5q0 27 24 48l75 65q9 8 18.5 14t22.5 6q14 0 22 -7.5t17 -25.5l29 -56q14 -28 20 -47t6 -43q0 -25 -14 -49l-270 -445z" />
<glyph unicode="&#x201a;" horiz-adv-x="481" d="M63 -316l57 83q63 91 78 190q3 14 3 28.5v22.5q0 30 -6 80.5t-6 65.5q0 27 24 49l75 65q9 8 18.5 14t22.5 6q14 0 22 -8t17 -25l29 -57q14 -28 20 -46.5t6 -42.5q0 -25 -14 -49l-270 -446z" />
<glyph unicode="&#x201c;" horiz-adv-x="890" d="M63 1089q0 27 13 51l272 445l74 -71l-57 -83q-33 -47 -52 -91t-24.5 -77.5t-5.5 -49v-23.5q-1 -31 3 -60q9 -85 10 -86q0 -27 -24 -49l-74 -65q-22 -19 -41 -17q-14 0 -23.5 8t-15.5 22l-30 57q-14 28 -20.5 47t-4.5 42zM472 1089q0 28 14 51l271 445l74 -71l-57 -83 q-33 -47 -51.5 -91t-24 -77.5t-5.5 -49v-23.5q0 -31 3 -60q9 -85 9 -86q0 -27 -23 -49l-74 -65q-24 -20 -41 -19q-25 0 -40 32l-30 57q-14 28 -20 47t-5 42z" />
<glyph unicode="&#x201d;" horiz-adv-x="876" d="M58 987l57 82q33 50 51 92.5t28 97.5q3 14 3 28.5v22.5q0 30 -6.5 80t-6.5 66q0 30 24 49l74 64q16 13 19 15q9 6 22 6q25 0 39 -33l30 -57q14 -28 20.5 -47t4.5 -43q0 -28 -12 -48l-273 -446zM471 987l56 82q33 50 51.5 92.5t27.5 97.5q3 13 3 28v23q0 30 -6 80t-6 66 q0 30 23 49l74 64q9 8 19 14.5t22 6.5q25 0 39 -33l30 -57q14 -28 21 -47t5 -43q0 -28 -13 -48l-272 -446z" />
<glyph unicode="&#x201e;" horiz-adv-x="876" d="M58 -316l57 81q33 50 51 93t28 98q3 14 3 28v22q0 30 -6.5 80.5t-6.5 66.5q0 30 24 48l74 65q16 13 19 14q9 6 22 6q25 0 39 -33l30 -56q14 -28 20.5 -47t4.5 -43q0 -28 -12 -49l-273 -445zM471 -316l56 81q33 50 51.5 93t27.5 98q3 13 3 27.5v22.5q0 30 -6 80.5t-6 66.5 q0 30 23 48l74 65q9 8 19 14t22 6q25 0 39 -33l30 -56q14 -28 21 -47t5 -43q0 -28 -13 -49l-272 -445z" />
<glyph unicode="&#x2022;" horiz-adv-x="861" d="M66 612q0 156 106.5 268.5t258.5 112.5q151 0 258.5 -107t107.5 -258q0 -154 -113 -262t-268 -108q-145 0 -247.5 104t-102.5 250z" />
<glyph unicode="&#x2026;" horiz-adv-x="1423" d="M65 132q0 55 35 95.5t100 40.5q66 0 105 -44q35 -38 35 -96q0 -57 -33 -93q-38 -43 -104 -43q-65 0 -101.5 42t-36.5 98zM570 123q0 57 35.5 96t101.5 39q65 0 104 -44q35 -39 34 -96q0 -55 -35 -95t-100 -40q-66 0 -103 41t-37 99zM1085 123q0 57 35 96t102 39 q66 0 102 -41t36 -99q0 -57 -33 -93q-38 -42 -104 -42t-102 41t-36 99z" />
<glyph unicode="&#x202f;" horiz-adv-x="414" />
<glyph unicode="&#x205f;" horiz-adv-x="517" />
<glyph unicode="&#x2122;" horiz-adv-x="1723" d="M72 1538h19q8 -2 97 -3.5t185 -1.5l279 5l19 2l-8 -174h-30l-8 68q-3 28 -12.5 37.5t-26.5 9.5l-166 2v-586q0 -25 11 -42q9 -9 31.5 -11.5t28.5 -2.5l24 -4v-29h-16q-2 0 -50.5 3t-78.5 3q-28 0 -61.5 -2.5t-69.5 -3.5h-19v31l30 3q13 0 28 1t28.5 15t13.5 39v586 l-164 -5q-19 -3 -22 -6q-9 -9 -13 -30l-11 -76h-31zM710 808v31l28 3q13 0 28 1t27.5 14.5t12.5 39.5v547q0 24 -2 29t-10 14.5t-35 13.5t-38 4h-11v31h17l71 -4l101 4h12l274 -582l107 223q54 105 71 142q31 63 58 125l30 74l7 18h14l90 -4l83 4h13v-31h-15q-22 0 -43 -2.5 t-27 -11.5q-16 -20 -16 -47v-547q0 -20 14 -42q11 -11 27.5 -12.5t30.5 -1.5l25 -4v-29h-17q-2 0 -50.5 3t-76.5 3q-27 0 -61.5 -2.5t-71.5 -3.5h-17v31l30 3q13 0 27 1t27.5 15t13.5 39v510l-287 -610h-22l-286 607v-507q0 -24 12.5 -38.5t29 -16t30.5 -1.5l25 -4v-29h-17 q-2 0 -50.5 3t-78.5 3q-17 0 -47 -3t-40 -3h-17z" />
<glyph unicode="&#x25fc;" horiz-adv-x="1086" d="M0 0v1086h1086v-1086h-1086z" />
</font>
</defs>
</svg>
